<!DOCTYPE svg PUBLIC "-//W3C//DTD SVG 1.1//EN" "http://www.w3.org/Graphics/SVG/1.1/DTD/svg11.dtd" [
	<!ENTITY ns_flows "http://ns.adobe.com/Flows/1.0/">
]>
<svg xmlns="http://www.w3.org/2000/svg" width="218" height="85" viewBox="0 0 218 85" overflow="visible"><path fill="#fff" d="M0 0h218v85H0z"/><path fill="#312C74" d="M30.895 67.275c-.65-.523-.834-1.506-.712-2.168.14-.74.694-1.13 1.27-.662.255.203.37.406.496.71l.132-.203.098.077-.28 1.14-.136-.11c.074-.624.01-1.1-.334-1.376-.323-.262-.617.062-.757.814-.13.71-.008 1.328.32 1.596.354.285.613.223.772-.338l.155.127c-.16.648-.605.732-1.025.392"/><path fill="#312C74" d="M33.238 68.713c-.783-.36-1.02-1.27-.893-1.89.133-.667.71-1.243 1.46-.9.895.415 1.042 1.386.93 1.944-.143.72-.71 1.207-1.497.846m.554-2.563c-.333-.154-.69.035-.872.932-.188.947.115 1.305.395 1.436.41.19.695-.172.83-.842.17-.844-.005-1.367-.353-1.526zM37.61 69.096c-.104-.037-.194-.03-.233.166l-.216.97-.16-.04-.118-.377c-.14.206-.423.297-.803.162-.725-.258-1.075-1.025-.913-1.805.155-.746.8-1.29 1.543-1.023.336.118.524.315.64.528l.176-.24.124.033-.28 1.132-.156-.043c.057-.536-.04-1.013-.498-1.174-.224-.08-.74-.022-.95.993-.165.782.083 1.263.46 1.395.3.105.434-.018.522-.193l.1-.428c.04-.195-.03-.26-.135-.297l-.244-.086.035-.172 1.288.378-.034.172-.15-.052M40.86 68.365c-.11-.02-.193.004-.21.205l-.33 2.426-.307-.053-1.16-2.31-.26 1.61c-.026.19.054.28.165.297l.256.062-.03.182-1.105-.256.027-.18.218.047c.11.02.176-.014.21-.213l.323-1.963c.03-.192-.047-.25-.173-.27l-.218-.05.028-.17.85.17 1.072 2.14.168-1.517c.016-.2-.064-.252-.174-.27l-.253-.045.026-.176 1.123.193-.026.177-.22-.037"/><path fill="#312C74" d="M42.434 71.265c-.865-.065-1.23-.886-1.178-1.552.054-.71.585-1.502 1.41-1.438.993.074 1.27.988 1.226 1.586-.06.77-.59 1.472-1.458 1.405m.25-2.76c-.368-.028-.717.294-.79 1.253-.078 1.016.284 1.257.596 1.283.453.035.704-.43.76-1.147.07-.905-.183-1.358-.565-1.39zM45.604 71.283c-.417.018-.623-.13-.77-.34l-.162.314-.125.007.014-1.224.165-.008c.068.574.278 1.057.855 1.03.23-.007.442-.163.444-.41.008-.843-1.51-.24-1.5-1.522.004-.27.236-.8.882-.827.353-.015.554.108.705.285l.13-.317.12-.006-.012 1.16-.17.004c-.045-.6-.256-.927-.73-.908-.346.015-.466.267-.468.446-.01.693 1.54.266 1.527 1.39-.004.47-.333.906-.903.927M48.55 70.992c-.86.13-1.342-.53-1.386-1.215-.048-.77.43-1.656 1.18-1.748.334-.046.535-.003.753.144l.092-.3.124-.022.08 1.234-.18.03c-.086-.608-.362-.946-.808-.868-.422.076-.655.63-.604 1.41.045.742.347 1.16.776 1.082.46-.082.727-.377.75-1.008l.204-.04c0 .755-.34 1.203-.982 1.3M51.06 67.73c-.093.028-.15.08-.14.235l.055.857.076-.02c.418-.122.47-.15.482-.828l.154-.045.104 1.566-.154.045c-.1-.64-.135-.644-.57-.52l-.075.022.065.98c.01.164.078.162.164.14.18-.044.29-.075.547-.157.412-.118.5-.32.52-1.086l.16-.046.114 1.094c-.91.296-1.602.488-2.512.72l-.013-.185.247-.064c.103-.03.184-.095.173-.3l-.135-2.006c-.01-.2-.097-.213-.202-.183l-.246.072-.01-.182c.885-.238 1.73-.48 2.344-.67l.112 1.064-.162.045c-.116-.735-.336-.784-.677-.687-.17.052-.322.108-.42.136"/><path fill="#312C74" d="M53.16 69.734l-.026-.178.252-.096c.1-.043.156-.12.13-.32l-.243-1.908c-.024-.19-.11-.19-.204-.148l-.24.095-.024-.174 1.632-.746c.424-.193.793-.035.847.37.036.282-.12.67-.443.866.303.068.4.22.476.808.022.168.11.18.177.144.065-.035.11-.105.096-.22l-.096-.544.18-.08.113.568c.028.207-.08.465-.445.63-.282.13-.558.08-.604-.267-.076-.592-.197-.756-.522-.656l-.245.112.125.98c.02.16.08.166.162.13l.32-.134.024.178c-.453.213-.968.418-1.44.588m.955-3.13l-.198.092c-.085.04-.106.082-.095.178l.12.918.276-.127c.428-.195.528-.566.5-.78-.057-.45-.373-.385-.603-.28zM57.7 64.146l.263.943-.133.1c-.17-.67-.375-.616-.653-.397-.146.113-.23.186-.354.287-.078.06-.122.13-.1.28l.177.802.09-.066c.3-.234.344-.297.24-.934l.127-.098.33 1.445-.126.095c-.147-.588-.176-.576-.538-.302l-.086.067.183.926c.023.156.08.125.153.078.117-.07.383-.285.5-.38.28-.214.337-.464.233-1.192l.13-.1.265 1c-.536.512-1.386 1.116-2.09 1.578l-.026-.174.214-.14c.112-.087.144-.153.11-.36l-.374-1.852c-.03-.19-.113-.213-.2-.146l-.222.152-.045-.163c.537-.37 1.336-.976 1.932-1.45"/><path fill="#312C74" d="M16.953 56.635c-.185-.236-.284-.586-.14-.88.24-.5.25-.763.06-1.063l-.16-.2-.424.765c-.065.135-.033.203.02.27l.207.263-.073.15-.937-1.19.072-.15.15.194c.067.08.13.12.21-.05l.85-1.57c.08-.163.042-.257-.022-.34l-.153-.192.07-.146 1.052 1.332c.276.352.365.885.202 1.225-.12.242-.355.258-.6.102.1.39.074.61-.165 1.105-.07.145-.05.225-.005.28.044.056.094.058.14-.04l.23-.473.147.188-.242.502c-.084.176-.254.22-.492-.082m.482-2.94l-.115-.148c-.055-.068-.085-.062-.123.018l-.402.756.193.234c.28.354.497.214.586.028.182-.378.01-.695-.14-.887zM17.435 57.138l.084-.157.185.157c.082.064.155.09.25-.086l.903-1.703c.09-.17.044-.253-.034-.32l-.188-.153.08-.152 1.807 1.498-.488.92-.12-.104c.29-.682.187-.93-.068-1.145l-.32-.263c-.07-.06-.13-.064-.2.068l-.403.76.057.045c.318.263.365.28.705-.242l.115.096-.704 1.333-.116-.095c.253-.598.233-.63-.1-.904l-.055-.047-.436.823c-.075.14-.034.197.032.252l.41.346c.257.21.47.17.85-.405l.12.1-.495.936-1.872-1.552"/><path fill="#312C74" d="M21.705 60.086c-.262-.146-.427-.43-.276-.748.25-.543.252-.782-.023-.985l-.225-.124-.414.88c-.068.145-.016.195.06.237l.29.16-.076.165-1.328-.734.076-.162.217.12c.092.048.177.06.26-.12l.834-1.78c.084-.18.027-.25-.063-.302l-.217-.12.072-.16 1.51.835c.392.218.564.67.39 1.037-.122.263-.424.364-.753.31.172.318.16.53-.09 1.064-.074.157-.038.224.022.257.063.035.13.016.18-.09l.238-.51.21.113-.255.547c-.093.19-.304.294-.64.11M22 57.24l-.184-.104c-.078-.042-.113-.025-.156.06l-.394.845.256.14c.396.22.657.013.75-.187.193-.41-.06-.637-.272-.754zM25.572 58.73c-.122-.048-.2-.01-.305.138L23.7 60.913l-.253-.096.047-2.62c-.002-.202-.026-.266-.123-.3l-.183-.07.056-.172 1.325.5-.056.174-.2-.077c-.096-.035-.228-.037-.224.17l-.066 1.746 1.03-1.386c.09-.13.057-.23-.08-.28l-.16-.063.054-.17.896.337-.058.174-.132-.05M27.143 61.924l.056-.178.214.04c.156.03.205-.01.25-.18l.492-1.65-1.43 1.862-.262-.066-.058-2.23-.58 1.63c-.063.194.01.247.11.274l.216.057-.056.176-1.06-.274.058-.176.234.06c.1.026.19.017.25-.182l.67-1.91c.06-.19-.015-.247-.114-.273l-.232-.06.053-.174 1.056.272.014 2.047 1.335-1.733 1.022.19-.053.17-.24-.036c-.103-.026-.193-.01-.253.183l-.577 1.926c-.06.194.008.247.113.274l.232.05-.054.175-1.407-.266M61.375 61.982c-.813.176-1.402-.47-1.576-1.14-.195-.75.14-1.604.86-1.763.32-.07.51-.01.756.126l.03-.3.124-.024.31 1.205-.167.037c-.205-.594-.542-.914-.973-.82-.4.088-.528.64-.332 1.4.185.723.563 1.12.977 1.03.44-.097.65-.394.552-1.015l.197-.044c.14.738-.144 1.17-.76 1.306"/><path fill="#312C74" d="M63.604 61.314l-.056-.177.225-.073c.103-.03.21-.11.092-.28l-.274-.39-.675.22v.48c.004.165.085.222.23.176l.17-.056.053.176-.976.318-.053-.176.177-.06c.128-.04.173-.112.174-.305l.026-2.593.268-.086 1.483 2.1c.112.164.17.193.276.16l.227-.076.054.175-1.42.467m-.684-1.884v.965l.542-.18-.542-.785zM66.248 57.39c-.12.056-.16.14-.163.33l-.002 2.68-.253.11-1.512-2.006c-.116-.155-.168-.184-.267-.14l-.182.08-.053-.173 1.322-.584.052.173-.198.085c-.096.045-.202.14-.083.295l.972 1.315-.013-1.74c-.003-.167-.084-.22-.22-.16l-.16.07-.055-.17.894-.396.05.17-.132.06M68.226 59.3c-.345.21-.56.163-.748.036l-.04.373-.105.06-.346-1.164.137-.082c.224.513.54.873 1.02.584.19-.12.32-.365.253-.6-.237-.8-1.34.473-1.703-.748-.073-.255-.034-.865.5-1.19.293-.177.496-.15.675-.057l.015-.36.1-.06.327 1.103-.143.086c-.212-.55-.486-.764-.878-.525-.286.173-.313.468-.262.64.195.658 1.37-.462 1.687.61.132.444-.018 1.006-.49 1.292"/><path fill="#312C74" d="M70.038 57.91l-.06-.17.184-.148c.08-.068.166-.186.052-.327l-.26-.325-.547.45.037.51c.014.17.09.206.205.11l.136-.11.06.167-.79.648-.058-.17.142-.117c.104-.084.135-.178.12-.38l-.18-2.745.216-.182 1.406 1.745c.11.14.158.15.244.08l.185-.152.06.17-1.152.947m-.72-1.772l.073 1.02.445-.364-.517-.656zM71.973 56.092c-.243.32-.418.336-.584.257l.018.398-.073.098-.435-1.12.095-.124c.247.47.548.754.885.31.135-.177.204-.472.114-.698-.297-.768-.987.885-1.442-.285-.097-.248-.15-.897.225-1.392.207-.272.37-.305.526-.258l-.04-.38.07-.095.412 1.06-.1.13c-.242-.51-.488-.652-.763-.293-.203.268-.183.582-.118.746.246.635 1.013-.883 1.414.146.166.43.128 1.062-.205 1.498"/><path fill="#312C74" d="M73.833 53.217c-.486-.52-1.374-1.695-1.855-3.736-.104-.653-.59-1.267-1.702-1.267-1.34 0-2.503.764-3.147 1.48-.527.58-.796 1.222-.742 1.753.015.148.068.275.152.383h-.004l1.9 2.284c-2.96 2.358-6.598 3.465-9.95 3.96 5.437-5.352 9.043-12.696 9.043-23.2V15.402C61.854 13.957 52.75 12.5 44.296 12.5c-8.454 0-17.56 1.457-23.233 2.902v19.472c0 10.445 3.567 17.767 8.953 23.11-3.325-.456-6.933-1.515-9.884-3.87l1.896-2.283h-.005c.085-.108.138-.235.152-.384.056-.53-.215-1.172-.74-1.754-.643-.715-1.808-1.48-3.145-1.48-1.115 0-1.6.614-1.702 1.27-.482 2.04-1.372 3.216-1.857 3.735-1.088 1.158-.464 2.314.1 3.084 1.608 2.19 5.634 6.032 14.58 7.276-.245.762-.542 1.444-.84 2.094-.332.727-.06 1.38.948 2.26 2.5 2.178 7.687 4.57 14.764 4.57 7.074 0 12.263-2.393 14.758-4.57 1.01-.88 1.285-1.533.95-2.26-.3-.65-.595-1.332-.84-2.094 8.946-1.244 13.097-4.93 14.674-7.342.523-.796 1.095-1.86.007-3.017m-29.55 13.87c-3.774 0-6.744-.974-8.66-1.81.393-.7.684-1.43.904-2.197 2.452 1.533 5.074 2.846 7.77 3.994 2.703-1.152 5.33-2.465 7.787-4.004.24.764.555 1.49.948 2.19-1.913.836-4.975 1.826-8.748 1.826z"/><path fill="#fff" d="M31.264 60.363c-.604 0-.783.19-.783.54 0 1.495 2.897 3.4 4.66 4.18.41-.72.73-1.472.977-2.265-1.052-.672-2.066-1.388-3.043-2.148-.666-.172-1.304-.307-1.81-.307M19.023 50.916c-.22.354-.667 1.072-.8 1.29.33.44.967 1.11 1.578 1.634l1.405-1.69c-.706-.007-1.61-.45-2.182-1.234M19.03 50.094c.568.988 1.483 1.697 2.34 1.523.3-.062.316-.24.322-.3.042-.41-.126-.847-.573-1.34-.732-.81-1.756-1.306-2.744-1.306-1 0-1.294.567-1.294 1.114 0 .357.197 1.105.865 2.05.258-.412 1.083-1.74 1.083-1.74M16.736 50.53c-.523 1.563-1.108 2.503-1.542 2.966-.68.724-.712 1.496.062 2.545 1.57 2.142 5.464 5.827 14.3 7.044.19-.686.326-1.357.392-2.205h.002c.005-.67.507-.956 1.2-.956.328 0 .74.062 1.188.154-.583-.482-1.155-.982-1.708-1.502-8.427-1.1-12.714-5.076-13.894-8.047M53.53 65.03c1.762-.774 4.527-2.624 4.527-4.12 0-.348-.18-.54-.783-.54-.49 0-1.104.128-1.742.29-.977.762-1.992 1.478-3.043 2.15.272.778.632 1.504 1.04 2.22M67.36 52.148l1.407 1.69c.61-.522 1.247-1.192 1.577-1.634l-.8-1.29c-.57.785-1.477 1.23-2.185 1.234M66.814 51.402c.006.06.023.238.32.3.857.175 1.834-.62 2.403-1.608 0 0 .824 1.328 1.082 1.74.667-.943.86-1.748.86-2.107 0-.548-.26-1.04-1.254-1.04-.988 0-2.047.48-2.778 1.29-.445.494-.675 1.013-.634 1.425M73.432 53.605c-.433-.465-1.078-1.512-1.603-3.076-1.178 2.968-5.458 6.938-13.862 8.042-.552.52-1.12 1.018-1.703 1.498.435-.088.833-.146 1.154-.146.692 0 1.19.285 1.198.955.067.847.217 1.597.41 2.282 8.835-1.215 12.86-4.932 14.27-7.024.73-1.084.814-1.81.134-2.533M58.31 61.904c-1.415 2.41-7.354 5.688-14.025 5.688-6.673 0-12.612-3.277-14.026-5.688-.257 1.578-.677 2.875-1.197 4.008-.16.355-.244.812.84 1.76 2.438 2.127 7.424 4.334 14.382 4.334 6.956 0 11.943-2.193 14.38-4.318 1.086-.947 1.004-1.406.84-1.76-.52-1.133-.94-2.446-1.195-4.024"/><path fill="#009CDE" d="M44.297 65.56c-12.025-5.034-22.27-13.618-22.27-31.1V16.25c4.58-1.2 14.546-2.895 22.27-2.895 7.727 0 17.69 1.694 22.27 2.896v18.21c0 17.48-10.246 26.065-22.27 31.1"/><path fill="#312C74" d="M30.895 67.275c-.65-.523-.834-1.506-.712-2.168.14-.74.694-1.13 1.27-.662.255.203.37.406.496.71l.132-.203.098.077-.28 1.14-.136-.11c.074-.624.01-1.1-.334-1.376-.323-.262-.617.062-.757.814-.13.71-.008 1.328.32 1.596.354.285.613.223.772-.338l.155.127c-.16.648-.605.732-1.025.392"/><path fill="#312C74" d="M33.238 68.713c-.783-.36-1.02-1.27-.893-1.89.133-.667.71-1.243 1.46-.9.895.415 1.042 1.386.93 1.944-.143.72-.71 1.207-1.497.846m.554-2.563c-.333-.154-.69.035-.872.932-.188.947.115 1.305.395 1.436.41.19.695-.172.83-.842.17-.844-.005-1.367-.353-1.526zM37.61 69.096c-.104-.037-.194-.03-.233.166l-.216.97-.16-.04-.118-.377c-.14.206-.423.297-.803.162-.725-.258-1.075-1.025-.913-1.805.155-.746.8-1.29 1.543-1.023.336.118.524.315.64.528l.176-.24.124.033-.28 1.132-.156-.043c.057-.536-.04-1.013-.498-1.174-.224-.08-.74-.022-.95.993-.165.782.083 1.263.46 1.395.3.105.434-.018.522-.193l.1-.428c.04-.195-.03-.26-.135-.297l-.244-.086.035-.172 1.288.378-.034.172-.15-.052M40.86 68.365c-.11-.02-.193.004-.21.205l-.33 2.426-.307-.053-1.16-2.31-.26 1.61c-.026.19.054.28.165.297l.256.062-.03.182-1.105-.256.027-.18.218.047c.11.02.176-.014.21-.213l.323-1.963c.03-.192-.047-.25-.173-.27l-.218-.05.028-.17.85.17 1.072 2.14.168-1.517c.016-.2-.064-.252-.174-.27l-.253-.045.026-.176 1.123.193-.026.177-.22-.037"/><path fill="#312C74" d="M42.434 71.265c-.865-.065-1.23-.886-1.178-1.552.054-.71.585-1.502 1.41-1.438.993.074 1.27.988 1.226 1.586-.06.77-.59 1.472-1.458 1.405m.25-2.76c-.368-.028-.717.294-.79 1.253-.078 1.016.284 1.257.596 1.283.453.035.704-.43.76-1.147.07-.905-.183-1.358-.565-1.39zM45.604 71.283c-.417.018-.623-.13-.77-.34l-.162.314-.125.007.014-1.224.165-.008c.068.574.278 1.057.855 1.03.23-.007.442-.163.444-.41.008-.843-1.51-.24-1.5-1.522.004-.27.236-.8.882-.827.353-.015.554.108.705.285l.13-.317.12-.006-.012 1.16-.17.004c-.045-.6-.256-.927-.73-.908-.346.015-.466.267-.468.446-.01.693 1.54.266 1.527 1.39-.004.47-.333.906-.903.927M48.55 70.992c-.86.13-1.342-.53-1.386-1.215-.048-.77.43-1.656 1.18-1.748.334-.046.535-.003.753.144l.092-.3.124-.022.08 1.234-.18.03c-.086-.608-.362-.946-.808-.868-.422.076-.655.63-.604 1.41.045.742.347 1.16.776 1.082.46-.082.727-.377.75-1.008l.204-.04c0 .755-.34 1.203-.982 1.3M51.06 67.73c-.093.028-.15.08-.14.235l.055.857.076-.02c.418-.122.47-.15.482-.828l.154-.045.104 1.566-.154.045c-.1-.64-.135-.644-.57-.52l-.075.022.065.98c.01.164.078.162.164.14.18-.044.29-.075.547-.157.412-.118.5-.32.52-1.086l.16-.046.114 1.094c-.91.296-1.602.488-2.512.72l-.013-.185.247-.064c.103-.03.184-.095.173-.3l-.135-2.006c-.01-.2-.097-.213-.202-.183l-.246.072-.01-.182c.885-.238 1.73-.48 2.344-.67l.112 1.064-.162.045c-.116-.735-.336-.784-.677-.687-.17.052-.322.108-.42.136"/><path fill="#312C74" d="M53.16 69.734l-.026-.178.252-.096c.1-.043.156-.12.13-.32l-.243-1.908c-.024-.19-.11-.19-.204-.148l-.24.095-.024-.174 1.632-.746c.424-.193.793-.035.847.37.036.282-.12.67-.443.866.303.068.4.22.476.808.022.168.11.18.177.144.065-.035.11-.105.096-.22l-.096-.544.18-.08.113.568c.028.207-.08.465-.445.63-.282.13-.558.08-.604-.267-.076-.592-.197-.756-.522-.656l-.245.112.125.98c.02.16.08.166.162.13l.32-.134.024.178c-.453.213-.968.418-1.44.588m.955-3.13l-.198.092c-.085.04-.106.082-.095.178l.12.918.276-.127c.428-.195.528-.566.5-.78-.057-.45-.373-.385-.603-.28zM57.7 64.146l.263.943-.133.1c-.17-.67-.375-.616-.653-.397-.146.113-.23.186-.354.287-.078.06-.122.13-.1.28l.177.802.09-.066c.3-.234.344-.297.24-.934l.127-.098.33 1.445-.126.095c-.147-.588-.176-.576-.538-.302l-.086.067.183.926c.023.156.08.125.153.078.117-.07.383-.285.5-.38.28-.214.337-.464.233-1.192l.13-.1.265 1c-.536.512-1.386 1.116-2.09 1.578l-.026-.174.214-.14c.112-.087.144-.153.11-.36l-.374-1.852c-.03-.19-.113-.213-.2-.146l-.222.152-.045-.163c.537-.37 1.336-.976 1.932-1.45"/><path fill="#312C74" d="M16.953 56.635c-.185-.236-.284-.586-.14-.88.24-.5.25-.763.06-1.063l-.16-.2-.424.765c-.065.135-.033.203.02.27l.207.263-.073.15-.937-1.19.072-.15.15.194c.067.08.13.12.21-.05l.85-1.57c.08-.163.042-.257-.022-.34l-.153-.192.07-.146 1.052 1.332c.276.352.365.885.202 1.225-.12.242-.355.258-.6.102.1.39.074.61-.165 1.105-.07.145-.05.225-.005.28.044.056.094.058.14-.04l.23-.473.147.188-.242.502c-.084.176-.254.22-.492-.082m.482-2.94l-.115-.148c-.055-.068-.085-.062-.123.018l-.402.756.193.234c.28.354.497.214.586.028.182-.378.01-.695-.14-.887zM17.435 57.138l.084-.157.185.157c.082.064.155.09.25-.086l.903-1.703c.09-.17.044-.253-.034-.32l-.188-.153.08-.152 1.807 1.498-.488.92-.12-.104c.29-.682.187-.93-.068-1.145l-.32-.263c-.07-.06-.13-.064-.2.068l-.403.76.057.045c.318.263.365.28.705-.242l.115.096-.704 1.333-.116-.095c.253-.598.233-.63-.1-.904l-.055-.047-.436.823c-.075.14-.034.197.032.252l.41.346c.257.21.47.17.85-.405l.12.1-.495.936-1.872-1.552"/><path fill="#312C74" d="M21.705 60.086c-.262-.146-.427-.43-.276-.748.25-.543.252-.782-.023-.985l-.225-.124-.414.88c-.068.145-.016.195.06.237l.29.16-.076.165-1.328-.734.076-.162.217.12c.092.048.177.06.26-.12l.834-1.78c.084-.18.027-.25-.063-.302l-.217-.12.072-.16 1.51.835c.392.218.564.67.39 1.037-.122.263-.424.364-.753.31.172.318.16.53-.09 1.064-.074.157-.038.224.022.257.063.035.13.016.18-.09l.238-.51.21.113-.255.547c-.093.19-.304.294-.64.11M22 57.24l-.184-.104c-.078-.042-.113-.025-.156.06l-.394.845.256.14c.396.22.657.013.75-.187.193-.41-.06-.637-.272-.754zM25.572 58.73c-.122-.048-.2-.01-.305.138L23.7 60.913l-.253-.096.047-2.62c-.002-.202-.026-.266-.123-.3l-.183-.07.056-.172 1.325.5-.056.174-.2-.077c-.096-.035-.228-.037-.224.17l-.066 1.746 1.03-1.386c.09-.13.057-.23-.08-.28l-.16-.063.054-.17.896.337-.058.174-.132-.05M27.143 61.924l.056-.178.214.04c.156.03.205-.01.25-.18l.492-1.65-1.43 1.862-.262-.066-.058-2.23-.58 1.63c-.063.194.01.247.11.274l.216.057-.056.176-1.06-.274.058-.176.234.06c.1.026.19.017.25-.182l.67-1.91c.06-.19-.015-.247-.114-.273l-.232-.06.053-.174 1.056.272.014 2.047 1.335-1.733 1.022.19-.053.17-.24-.036c-.103-.026-.193-.01-.253.183l-.577 1.926c-.06.194.008.247.113.274l.232.05-.054.175-1.407-.266M61.375 61.982c-.813.176-1.402-.47-1.576-1.14-.195-.75.14-1.604.86-1.763.32-.07.51-.01.756.126l.03-.3.124-.024.31 1.205-.167.037c-.205-.594-.542-.914-.973-.82-.4.088-.528.64-.332 1.4.185.723.563 1.12.977 1.03.44-.097.65-.394.552-1.015l.197-.044c.14.738-.144 1.17-.76 1.306"/><path fill="#312C74" d="M63.604 61.314l-.056-.177.225-.073c.103-.03.21-.11.092-.28l-.274-.39-.675.22v.48c.004.165.085.222.23.176l.17-.056.053.176-.976.318-.053-.176.177-.06c.128-.04.173-.112.174-.305l.026-2.593.268-.086 1.483 2.1c.112.164.17.193.276.16l.227-.076.054.175-1.42.467m-.684-1.884v.965l.542-.18-.542-.785zM66.248 57.39c-.12.056-.16.14-.163.33l-.002 2.68-.253.11-1.512-2.006c-.116-.155-.168-.184-.267-.14l-.182.08-.053-.173 1.322-.584.052.173-.198.085c-.096.045-.202.14-.083.295l.972 1.315-.013-1.74c-.003-.167-.084-.22-.22-.16l-.16.07-.055-.17.894-.396.05.17-.132.06M68.226 59.3c-.345.21-.56.163-.748.036l-.04.373-.105.06-.346-1.164.137-.082c.224.513.54.873 1.02.584.19-.12.32-.365.253-.6-.237-.8-1.34.473-1.703-.748-.073-.255-.034-.865.5-1.19.293-.177.496-.15.675-.057l.015-.36.1-.06.327 1.103-.143.086c-.212-.55-.486-.764-.878-.525-.286.173-.313.468-.262.64.195.658 1.37-.462 1.687.61.132.444-.018 1.006-.49 1.292"/><path fill="#312C74" d="M70.038 57.91l-.06-.17.184-.148c.08-.068.166-.186.052-.327l-.26-.325-.547.45.037.51c.014.17.09.206.205.11l.136-.11.06.167-.79.648-.058-.17.142-.117c.104-.084.135-.178.12-.38l-.18-2.745.216-.182 1.406 1.745c.11.14.158.15.244.08l.185-.152.06.17-1.152.947m-.72-1.772l.073 1.02.445-.364-.517-.656zM71.973 56.092c-.243.32-.418.336-.584.257l.018.398-.073.098-.435-1.12.095-.124c.247.47.548.754.885.31.135-.177.204-.472.114-.698-.297-.768-.987.885-1.442-.285-.097-.248-.15-.897.225-1.392.207-.272.37-.305.526-.258l-.04-.38.07-.095.412 1.06-.1.13c-.242-.51-.488-.652-.763-.293-.203.268-.183.582-.118.746.246.635 1.013-.883 1.414.146.166.43.128 1.062-.205 1.498M28.337 23.896l.333-.463 30.593 19.41c.335.213.72.472 1.11.738l.153-.21c.145-.15.265-.275.346-.35.15.056.697.32 1 .513.713.45 1.357 1.417 1.24 2.063-.595.346-1.786.146-2.5-.305-.304-.194-.767-.57-.877-.683.038-.096.22-.415.32-.587l-27.3-17.32c-.807.016-1.635.116-2.463-.4-.318-.198-1.404-.894-2.032-1.323.136-.077.563-.328.9-.56l-.823-.52"/><path fill="#fff" d="M28.465 23.736l.863.55c-.336.23-.752.49-.892.57.63.428 1.66 1.087 1.98 1.285.83.518 1.658.417 2.466.4l26.142 16.586c.884.562 2.184 1.31 3.045 1.734l-.026.035c-.74-.11-1.43-.482-2-.845-.105.172-.185.325-.23.422.11.112.577.49.883.685.71.45 1.86.623 2.454.277.12-.645-.483-1.586-1.194-2.035-.305-.195-.852-.46-1.003-.514-.077.07-.33.354-.445.508L33.206 26.072c-.285-.708-.495-1.464-1.314-1.992-.314-.204-1.35-.856-2.008-1.245-.026.15-.126.604-.227.986l-.862-.546-.33.462"/><path fill="#312C74" d="M30.144 24.235c.04-.28.05-.743.05-.854 0-.075.1-.01.11.032.044.192.046.644.082.974l-.242-.15M30.923 24.73c-.007-.29-.042-.703-.08-.958-.014-.097.105-.01.125.032.116.278.18.903.2 1.083l-.245-.158M32.504 25.732c-.047-.283-.12-.645-.173-.787-.07-.188.058-.084.096-.015.14.256.26.668.31.948l-.232-.146M31.726 25.238c-.007-.287-.102-.76-.15-1-.02-.096.112-.007.132.038.12.27.25.945.27 1.124l-.252-.162M29.914 24.556c-.264.14-.713.32-.823.364-.073.028.027.09.07.084.21-.032.654-.2.993-.294l-.24-.154M30.692 25.05c-.29.103-.71.227-.974.29-.1.023.026.097.078.097.317-.003.956-.182 1.142-.23l-.246-.157M32.276 26.055c-.298.064-.682.136-.842.142-.212.008-.062.084.02.09.303.025.756-.025 1.048-.087l-.226-.145M31.495 25.56c-.287.102-.788.197-1.044.244-.1.02.038.102.087.104.314 0 1.026-.14 1.21-.188l-.252-.16M26.584 26.61l.332-.462 30.592 19.408c.335.214.72.472 1.113.737l.153-.21c.144-.15.263-.274.343-.35.152.056.7.32 1.004.513.712.453 1.357 1.416 1.24 2.064-.596.346-1.79.145-2.5-.308-.304-.192-.77-.572-.88-.68.04-.097.22-.415.322-.59l-27.3-17.32c-.81.016-1.635.116-2.464-.4-.317-.198-1.403-.894-2.034-1.322.137-.08.563-.33.902-.56l-.822-.52"/><path fill="#fff" d="M26.71 26.45l.866.548c-.338.23-.753.488-.893.57.63.426 1.66 1.088 1.978 1.287.83.516 1.662.414 2.468.397L57.27 45.838c.886.56 2.186 1.31 3.046 1.734l-.025.035c-.74-.11-1.426-.482-1.997-.845-.107.173-.187.325-.23.424.112.11.577.49.88.683.71.45 1.864.622 2.457.278.116-.646-.486-1.586-1.197-2.037-.302-.192-.85-.456-1.002-.513-.077.072-.328.357-.445.51L31.452 28.785c-.283-.708-.494-1.465-1.312-1.994-.313-.2-1.352-.853-2.01-1.24-.024.15-.124.604-.224.984l-.863-.548-.334.463"/><path fill="#312C74" d="M28.39 26.948c.04-.28.048-.743.048-.852 0-.075.1-.012.11.03.046.19.05.644.08.973l-.24-.152M29.17 27.44c-.01-.286-.043-.7-.08-.955-.015-.095.106-.01.123.032.117.278.182.902.202 1.08l-.244-.156M30.753 28.447c-.05-.285-.123-.647-.177-.79-.072-.187.06-.082.096-.013.14.255.26.667.31.947l-.23-.143M29.97 27.953c-.006-.29-.1-.762-.148-1.004-.018-.095.114-.004.134.038.12.272.25.945.27 1.125l-.256-.16M28.16 27.27c-.262.14-.713.32-.823.36-.073.03.026.092.07.086.207-.035.654-.202.992-.295l-.24-.15M28.94 27.765c-.288.102-.71.225-.975.29-.1.022.03.095.077.095.32-.003.958-.18 1.143-.23l-.246-.155M30.52 28.767c-.298.065-.68.137-.84.143-.213.007-.063.082.02.09.302.024.754-.026 1.047-.087l-.226-.146M29.74 28.273c-.29.102-.788.197-1.042.245-.102.02.036.1.087.1.312.005 1.023-.135 1.208-.185l-.253-.16M24.828 29.346l.33-.463 30.594 19.41c.334.214.72.47 1.11.74l.155-.214c.145-.15.26-.276.345-.35.15.054.696.32 1.002.51.71.452 1.354 1.42 1.237 2.065-.594.343-1.787.146-2.497-.307-.303-.195-.77-.57-.88-.683.04-.095.22-.415.322-.586l-27.3-17.323c-.805.017-1.634.118-2.462-.4-.32-.195-1.406-.893-2.035-1.32.14-.08.564-.332.9-.56l-.82-.52"/><path fill="#fff" d="M24.953 29.184l.865.55c-.337.23-.752.49-.892.57.628.427 1.66 1.088 1.978 1.285.83.517 1.658.415 2.467.398l26.145 16.587c.883.56 2.185 1.31 3.045 1.733l-.026.035c-.74-.11-1.43-.482-1.998-.846-.107.176-.186.326-.23.424.11.112.575.49.88.685.712.45 1.862.625 2.456.28.118-.65-.486-1.587-1.194-2.04-.308-.193-.853-.457-1.005-.512-.076.072-.327.357-.443.51L29.696 31.52c-.284-.707-.496-1.464-1.314-1.993-.314-.203-1.35-.854-2.008-1.243-.025.152-.125.605-.226.986l-.863-.548-.332.462"/><path fill="#312C74" d="M26.635 29.683c.04-.28.05-.74.05-.854 0-.073.1-.01.107.03.046.193.048.645.082.975l-.24-.152M27.413 30.178c-.006-.288-.043-.702-.08-.958-.014-.096.105-.01.123.033.117.278.18.902.2 1.08l-.243-.155M28.995 31.18c-.048-.28-.12-.643-.174-.785-.072-.188.06-.084.096-.014.138.256.26.67.308.946l-.23-.145M28.215 30.687c-.008-.288-.103-.76-.15-1.002-.02-.094.112-.004.134.04.118.27.25.945.27 1.124l-.255-.163M26.403 30.005c-.263.14-.715.32-.823.362-.074.028.025.092.07.085.207-.033.654-.2.99-.295l-.237-.152M27.183 30.5c-.287.1-.71.226-.975.29-.1.023.03.095.078.095.32-.002.957-.18 1.14-.23l-.243-.155M28.766 31.503c-.297.065-.68.136-.843.142-.212.007-.062.083.022.09.302.024.754-.024 1.047-.086l-.226-.147M27.985 31.01c-.288.1-.79.194-1.044.244-.098.018.038.1.088.1.313.005 1.026-.134 1.21-.185l-.253-.16M23.035 32.054l.332-.46 30.594 19.41c.335.21.72.468 1.11.736l.152-.21c.146-.15.267-.276.347-.352.15.056.696.317 1.002.513.71.452 1.354 1.417 1.237 2.063-.595.345-1.788.145-2.498-.305-.305-.193-.77-.572-.88-.684.04-.094.22-.414.32-.585l-27.3-17.325c-.806.018-1.634.118-2.463-.398-.32-.197-1.406-.895-2.034-1.322.138-.078.563-.33.898-.56l-.82-.52"/><path fill="#fff" d="M23.163 31.895l.864.548c-.338.23-.752.49-.893.57.63.43 1.662 1.09 1.978 1.287.832.517 1.66.415 2.467.397l26.14 16.588c.886.56 2.187 1.31 3.047 1.732l-.026.036c-.738-.108-1.427-.482-1.998-.845-.108.172-.186.324-.228.422.113.113.575.49.88.684.71.45 1.86.625 2.455.28.117-.647-.486-1.587-1.197-2.04-.304-.19-.85-.453-1.003-.51-.077.07-.33.355-.445.51l-27.3-17.324c-.285-.708-.498-1.466-1.315-1.993-.313-.203-1.352-.854-2.008-1.244-.025.152-.124.604-.225.986l-.863-.55-.33.465"/><path fill="#312C74" d="M24.84 32.395c.04-.28.05-.743.05-.854 0-.073.1-.01.11.032.046.192.047.644.08.975l-.24-.152M25.62 32.888c-.006-.29-.043-.7-.08-.958-.014-.093.106-.01.126.032.115.277.18.9.2 1.08l-.245-.154M27.203 33.893c-.05-.284-.123-.645-.176-.788-.072-.188.058-.084.095-.013.14.253.262.667.31.946l-.23-.145M26.424 33.4c-.007-.293-.103-.764-.15-1.004-.02-.095.112-.006.132.037.12.27.25.946.27 1.125l-.252-.16M24.61 32.715c-.26.14-.713.32-.823.363-.073.026.027.09.072.083.206-.03.652-.2.99-.292l-.24-.153M25.392 33.21c-.29.103-.71.225-.975.29-.1.023.027.096.078.096.318-.002.955-.182 1.14-.23l-.243-.155M26.973 34.213c-.297.064-.682.135-.843.142-.21.007-.06.082.02.09.306.025.756-.024 1.05-.086l-.227-.147M26.19 33.718c-.285.104-.785.198-1.043.247-.097.018.04.1.088.1.312.002 1.027-.137 1.21-.184l-.255-.162M60.255 23.896l-.333-.463-30.592 19.41c-.335.213-.72.472-1.11.738l-.154-.21c-.144-.15-.263-.275-.343-.35-.153.056-.7.32-1.005.513-.71.45-1.354 1.417-1.235 2.063.592.346 1.786.146 2.495-.305.305-.194.77-.57.88-.683-.04-.096-.22-.415-.322-.587L55.838 26.7c.806.016 1.635.116 2.462-.4.318-.198 1.403-.894 2.035-1.323-.14-.077-.564-.328-.902-.56l.822-.52"/><path fill="#fff" d="M59.798 23.273l-.863.55c-.1-.382-.202-.837-.226-.987-.66.388-1.697 1.04-2.01 1.245-.82.53-1.03 1.286-1.312 1.993L28.085 43.396c-.117-.153-.37-.438-.446-.51-.152.055-.7.318-1.002.513-.71.448-1.313 1.39-1.197 2.037.595.343 1.745.17 2.458-.28.304-.193.77-.572.88-.685-.043-.097-.124-.25-.23-.422-.57.363-1.258.738-2 .845l-.024-.035c.862-.424 2.162-1.172 3.045-1.734L55.71 26.54c.808.016 1.638.117 2.468-.4.317-.196 1.35-.856 1.977-1.285-.14-.08-.554-.34-.89-.57l.862-.55-.332-.462"/><path fill="#312C74" d="M58.45 24.235c-.04-.28-.05-.743-.05-.854 0-.075-.1-.01-.11.032-.047.192-.047.644-.08.974l.24-.15M57.67 24.73c.008-.29.04-.703.08-.958.012-.097-.106-.01-.125.032-.117.278-.18.903-.2 1.083l.244-.158M56.086 25.732c.05-.283.122-.645.176-.787.07-.188-.06-.084-.095-.015-.138.256-.26.668-.308.948l.226-.146M56.868 25.238c.006-.287.1-.76.15-1 .02-.096-.114-.007-.133.038-.12.27-.25.945-.272 1.124l.255-.162M58.68 24.556c.262.14.714.32.823.364.073.028-.027.09-.072.084-.206-.032-.65-.2-.99-.294l.24-.154M57.9 25.05c.288.103.707.227.973.29.1.023-.027.097-.077.097-.317-.003-.956-.182-1.14-.23l.245-.157M56.317 26.055c.3.064.684.136.844.142.212.008.062.084-.022.09-.304.025-.755-.025-1.05-.087l.23-.145M57.097 25.56c.29.102.79.197 1.042.244.1.02-.036.102-.084.104-.314 0-1.027-.14-1.21-.188l.25-.16M62.007 26.61l-.33-.462-30.593 19.408c-.336.214-.722.472-1.11.737l-.154-.21c-.146-.15-.265-.274-.346-.35-.15.056-.7.32-1.003.513-.71.453-1.354 1.416-1.236 2.064.594.346 1.786.145 2.498-.308.304-.192.77-.572.88-.68-.04-.097-.22-.415-.322-.59l27.3-17.32c.807.016 1.634.116 2.462-.4.32-.198 1.408-.894 2.035-1.322-.14-.08-.563-.33-.9-.56l.82-.52"/><path fill="#fff" d="M61.55 25.987l-.862.547c-.102-.38-.2-.834-.225-.984-.658.387-1.697 1.04-2.01 1.242-.815.528-1.027 1.286-1.312 1.994L29.84 46.11c-.118-.155-.37-.44-.445-.51-.152.055-.698.317-1.004.51-.71.452-1.313 1.392-1.196 2.04.594.344 1.745.17 2.456-.28.305-.194.77-.573.88-.684-.042-.1-.12-.25-.228-.424-.57.362-1.26.737-2 .847l-.025-.036c.86-.426 2.16-1.174 3.046-1.736l26.142-16.586c.807.017 1.636.12 2.466-.397.32-.2 1.352-.86 1.98-1.287-.14-.08-.552-.34-.892-.57l.863-.548-.33-.463"/><path fill="#312C74" d="M60.202 26.948c-.04-.28-.05-.743-.05-.852 0-.075-.1-.012-.108.03-.046.19-.05.644-.08.973l.238-.152M59.423 27.44c.006-.286.042-.7.08-.955.014-.095-.105-.01-.123.032-.117.278-.18.902-.2 1.08l.243-.156M57.842 28.447c.047-.285.12-.647.174-.79.072-.187-.057-.082-.096-.013-.14.255-.258.667-.306.947l.228-.143M58.62 27.953c.007-.29.102-.762.15-1.004.02-.095-.113-.004-.134.038-.12.272-.25.945-.27 1.125l.255-.16M60.432 27.27c.262.14.715.32.825.36.072.03-.027.092-.072.086-.207-.035-.653-.202-.99-.295l.237-.15M59.653 27.765c.287.102.71.225.974.29.1.022-.027.095-.077.095-.318-.003-.956-.18-1.14-.23l.243-.155M58.07 28.767c.3.065.683.137.843.143.21.007.06.082-.022.09-.302.024-.754-.026-1.046-.087l.227-.146M58.852 28.273c.287.102.787.197 1.044.245.098.02-.038.1-.087.1-.315.005-1.026-.135-1.21-.185l.252-.16M63.766 29.346l-.333-.463-30.593 19.41c-.336.213-.722.47-1.11.738l-.154-.212c-.145-.148-.263-.275-.342-.348-.154.053-.7.318-1.006.51-.712.45-1.353 1.418-1.236 2.064.592.343 1.788.146 2.496-.307.305-.195.77-.57.88-.683-.04-.095-.22-.415-.32-.586l27.3-17.322c.806.017 1.634.118 2.463-.4.317-.195 1.406-.893 2.034-1.32-.14-.08-.56-.332-.9-.56l.822-.52"/><path fill="#fff" d="M63.308 28.723l-.862.548c-.102-.38-.203-.832-.227-.983-.66.387-1.696 1.04-2.01 1.24-.816.53-1.03 1.29-1.314 1.995L31.594 48.844c-.115-.15-.366-.438-.444-.51-.152.06-.7.322-1.003.513-.71.452-1.312 1.392-1.197 2.038.594.346 1.746.17 2.457-.28.304-.192.77-.57.882-.683-.043-.098-.125-.248-.232-.424-.57.363-1.257.736-2 .846l-.025-.035c.86-.425 2.162-1.175 3.047-1.734L59.223 31.99c.807.016 1.636.118 2.468-.4.317-.197 1.35-.858 1.978-1.285-.14-.08-.554-.338-.89-.57l.862-.55-.332-.462"/><path fill="#312C74" d="M61.96 29.683c-.043-.28-.05-.74-.05-.854 0-.073-.1-.01-.11.03-.045.193-.047.645-.08.975l.24-.152M61.18 30.178c.007-.288.043-.702.08-.958.013-.096-.106-.01-.125.033-.116.278-.18.902-.2 1.08l.244-.155M59.598 31.18c.05-.28.12-.643.175-.785.073-.188-.058-.084-.095-.014-.14.256-.26.67-.31.946l.23-.145M60.378 30.687c.006-.288.1-.76.148-1.002.02-.094-.112-.004-.13.04-.12.27-.25.945-.272 1.124l.254-.163M62.188 30.005c.26.14.713.32.824.362.074.028-.027.092-.072.085-.208-.033-.65-.2-.99-.295l.238-.152M61.41 30.5c.29.1.71.226.974.29.1.023-.027.095-.08.095-.316-.002-.953-.18-1.14-.23l.247-.155M59.83 31.503c.295.065.68.136.84.142.213.007.06.083-.02.09-.306.024-.756-.024-1.05-.086l.23-.147M60.605 31.01c.29.1.79.194 1.046.244.103.018-.036.1-.086.1-.312.005-1.027-.134-1.21-.185l.25-.16M65.558 32.054l-.333-.46-30.592 19.41c-.335.21-.722.468-1.112.736l-.15-.21c-.145-.15-.265-.276-.346-.352-.15.056-.697.317-1.003.513-.71.452-1.353 1.417-1.234 2.063.593.345 1.785.145 2.495-.305.307-.193.77-.572.883-.684-.04-.094-.22-.414-.323-.585l27.3-17.325c.805.018 1.636.118 2.462-.398.32-.197 1.405-.895 2.033-1.322-.14-.078-.562-.33-.9-.56l.823-.52"/><path fill="#fff" d="M65.1 31.432l-.862.548c-.1-.38-.2-.833-.227-.984-.656.387-1.693 1.04-2.007 1.242-.818.527-1.03 1.287-1.313 1.993L33.387 51.555c-.118-.153-.367-.437-.446-.51-.15.058-.696.32-1 .512-.71.452-1.314 1.392-1.196 2.038.594.346 1.744.17 2.458-.28.303-.192.767-.57.88-.683-.045-.097-.123-.25-.23-.42-.57.36-1.26.735-2.002.844l-.025-.036c.864-.424 2.166-1.172 3.046-1.732l26.144-16.588c.808.018 1.637.12 2.466-.397.318-.195 1.35-.856 1.978-1.286-.138-.08-.554-.34-.89-.57l.862-.548-.33-.464"/><path fill="#312C74" d="M63.75 32.395c-.04-.28-.047-.743-.047-.854 0-.073-.102-.01-.11.032-.046.192-.048.644-.082.975l.24-.152M62.972 32.888c.008-.29.043-.7.08-.958.014-.093-.105-.01-.123.032-.118.277-.182.9-.2 1.08l.242-.154M61.39 33.893c.05-.284.12-.645.176-.788.07-.188-.06-.084-.097-.013-.14.253-.26.667-.31.946l.23-.145M62.17 33.4c.007-.293.1-.764.148-1.004.02-.095-.11-.006-.13.037-.12.27-.25.946-.273 1.125l.254-.16M63.98 32.715c.264.14.715.32.824.363.075.026-.026.09-.07.083-.208-.03-.653-.2-.99-.292l.236-.153M63.202 33.21c.29.103.708.225.974.29.1.023-.026.096-.077.096-.318-.002-.958-.182-1.14-.23l.242-.155M61.62 34.213c.297.064.682.135.842.142.21.007.06.082-.022.09-.3.025-.755-.024-1.047-.086l.227-.147M62.4 33.718c.29.104.79.198 1.044.247.1.018-.035.1-.088.1-.312.002-1.023-.137-1.208-.184l.253-.162"/><path fill="#00964D" d="M45.126 49.824c-.01-.228-.01-.9-.022-1-.012-.104-.068-.115-.125-.082-.058.035-.15.112-.252.19 0-.124.018-.382.018-.474 0-.143-.02-.155-.12-.07-.052.042-.09.006-.11-.047-.034-.093-.208-.544-.24-.647-.035-.102-.084-.082-.14.023-.054.115-.186.47-.22.57-.04.127-.064.127-.144.06-.12-.094-.146-.05-.138.026.02.147.107.494.13.688-.058-.102-.188-.22-.25-.298-.073-.08-.124-.042-.126.07-.004.126-.023.558-.023.854l.934.652.826-.514M37.955 54.512c-.28-.09-.61-.21-.718-.244-.105-.033-.123-.11-.023-.152.093-.04.246-.102.358-.146-.19-.038-.52-.092-.666-.125-.144-.035-.123-.102-.035-.15.054-.027.057-.04-.013-.092-.086-.066-.354-.318-.445-.406-.086-.082-.087-.137.02-.137.11-.002.538-.012.654-.018.1-.006.11-.012.058-.092-.072-.107-.058-.158.017-.133.088.027.452.146.57.186-.044-.123-.07-.23-.086-.29-.013-.065.015-.118.116-.097.1.022.737.23.957.29l.258 1-1.02.606M39.676 60.396c-.122.19-.415.592-.465.68-.05.09-.013.133.055.14s.177-.01.32-.028c-.075.102-.504.523-.56.598-.053.074.177.03.248.014.056-.013.048 0 .032.102-.018.1-.164.51-.195.61-.032.105.037.146.142.093.112-.06.47-.312.557-.377.085-.06.095-.062.137.137.02.1.09.2.17.075.075-.126.34-.73.437-.972-.016.117.02.29.028.39.01.106.083.116.142.02.057-.1.344-.44.52-.68l-.215-1.005-1.354.203M47.307 61.504c.14.177.454.62.523.697.068.077.123.053.147-.01.026-.06.06-.142.095-.265.073.102.253.362.306.438.06.084.096.104.124-.017.026-.114.036-.114.126-.067s.398.265.485.327c.088.064.166.035.146-.082-.022-.125-.09-.488-.124-.59-.033-.105-.026-.088.076-.078.215.018.183-.06.085-.174-.095-.11-.336-.34-.468-.482.105.052.277.08.375.093.153.02.19-.025.088-.14-.076-.085-.39-.438-.564-.68l-1.26-.175-.163 1.206M50.19 54.623c.213-.082.807-.223.94-.25.095-.018.125-.067.037-.145-.05-.042-.13-.11-.238-.182.116-.04.408-.164.494-.192.09-.028.016-.09-.045-.124-.075-.044-.075-.057-.01-.104.085-.06.488-.328.576-.393.084-.062.052-.105-.066-.12-.125-.02-.49 0-.596-.003-.11 0-.118-.008-.092-.107.04-.157.03-.2-.107-.145-.137.057-.4.22-.58.297.083-.084.13-.23.16-.326.053-.163.02-.17-.087-.124-.105.047-.554.18-.835.27l-.577 1.15 1.025.497"/><path fill="#312C74" d="M51.88 53.113c-.124-.02-.488 0-.595-.002-.11 0-.118-.007-.092-.104.04-.16.03-.202-.107-.146-.137.057-.4.22-.58.297.083-.084.13-.23.16-.326.053-.16.02-.167-.087-.122-.087.037-.455.15-.74.24-.13-1.312-1.803-3.242-4.382-3.242-.125 0-.236.01-.333.023-.01-.28-.01-.815-.02-.905-.013-.104-.07-.115-.126-.082-.058.035-.15.112-.252.19 0-.124.018-.382.018-.474 0-.144-.02-.156-.12-.07-.052.04-.09.005-.11-.048-.034-.094-.208-.545-.24-.648-.035-.102-.084-.082-.14.023-.054.115-.186.47-.22.57-.04.127-.064.127-.144.06-.12-.094-.146-.05-.138.026.02.147.107.494.13.688-.058-.1-.188-.22-.25-.297-.073-.08-.124-.042-.126.07-.004.103-.018.413-.02.685-.025-.003-.047-.005-.07-.005-1.77 0-4.414 1.425-4.64 3.374-.258-.074-.807-.252-.9-.27-.1-.022-.127.028-.115.095.015.062.042.168.085.29-.117-.04-.48-.157-.568-.187-.075-.023-.088.027-.017.135.053.078.043.086-.058.092-.116.006-.545.016-.653.016-.107.002-.106.057-.02.137.09.09.358.342.444.408.07.05.066.062.014.092-.088.05-.11.112.035.15.145.033.475.087.666.125-.11.045-.264.105-.357.145-.1.045-.082.12.023.154.082.024.338.114.58.196-.223.404-.346 1.02-.346 1.848 0 2.268.86 3.852 2.165 4.152-.165.236-.387.545-.424.61-.05.09-.013.134.055.14s.177-.008.32-.027c-.075.1-.504.522-.56.597-.053.074.177.03.248.014.056-.013.048 0 .032.103-.018.1-.164.51-.195.61-.032.105.037.146.142.09.112-.058.47-.31.557-.374.085-.06.095-.063.137.136.02.1.09.2.17.075.075-.125.34-.73.437-.97-.016.116.02.288.028.388.01.105.083.115.142.018.04-.07.194-.258.342-.447.46.872 1.886 1.317 3.365 1.317 1.93 0 2.73-.465 3.044-1.016.144.194.307.42.354.474.068.076.123.052.147-.01.026-.06.06-.143.095-.266.073.102.253.36.306.438.06.084.096.104.124-.017.026-.115.036-.115.126-.068s.398.266.485.328c.09.064.167.035.147-.082-.02-.125-.09-.488-.123-.59-.033-.105-.026-.088.076-.078.215.016.183-.06.085-.174-.095-.11-.336-.34-.468-.482.106.05.278.078.376.092.153.02.19-.025.088-.14-.062-.07-.29-.33-.465-.55 1.094-.38 2.318-2.133 2.318-4.422 0-.762-.296-1.307-.685-1.643.255-.07.575-.145.67-.165.094-.018.124-.067.036-.14-.05-.047-.13-.114-.238-.187.117-.04.41-.164.495-.192.09-.026.017-.09-.044-.124-.074-.043-.074-.057-.008-.104.084-.06.487-.328.575-.39.088-.066.056-.11-.062-.125m-14.284.412c.15.057.666.232 1.048.367-.298.014-.545.16-.738.43-.16-.05-.365-.107-.467-.133.06-.038.208-.118.294-.165.128-.07.136-.152-.11-.188-.104-.018-.55-.084-.55-.084l.14-.084c-.063-.07-.36-.315-.57-.468.144.01.563-.012.766-.03l-.085-.163c.085.028.396.132.478.17.082.04.158-.02.142-.085l-.062-.27c.086.038.456.188.76.257-.002.023-.002.05-.002.074 0 .2.057.37.165.54-.42-.106-1.05-.237-1.16-.28-.15-.057-.268.025-.05.11zm3.126 8.137c-.013-.07-.033-.223-.05-.318-.022-.146-.168-.143-.224.03-.032.103-.38.817-.38.817L40 61.938c-.163.116-.474.305-.668.45.066-.135.182-.565.214-.765l-.232.043c.053-.074.425-.473.487-.54s.025-.118-.056-.11c-.066.008-.162.006-.3.008.055-.06.23-.293.392-.523.085.01.174.018.263.018.147 0 .37-.025.603-.137-.277.39-.682.98-.75 1.073-.094.13-.044.266.092.074.104-.148.612-.732.91-1.08-.067.297-.048.566.04.81-.096.138-.216.315-.273.405zm3.693-11.51c-.026-.433-.104-1.176-.104-1.304 0-.157-.12-.24-.118-.003.002.167-.008.79-.02 1.21-.187-.31-.39-.464-.64-.52-.002-.173-.01-.42-.02-.532.052.05.16.16.23.227.103.107.22.016.162-.155-.034-.103-.114-.575-.114-.575l.142.12c.046-.08.195-.458.275-.708.02.148.17.568.26.75l.147-.123c0 .09-.02.407-.035.497-.01.094.07.142.126.11.057-.034.13-.09.24-.183-.01.09-.04.496-.016.807-.27.083-.42.226-.515.383zm4.65 10.947c-.073-.008-.22-.035-.318-.05-.145-.022-.187.118-.04.226.09.062.426.444.426.444l-.23-.026c.047.098.124.418.175.69-.105-.106-.464-.32-.64-.43l-.038.2c-.056-.074-.228-.355-.275-.436-.042-.082-.107-.082-.136-.02-.027.06-.078.17-.115.302-.033-.06-.162-.268-.308-.47.104-.282.107-.576.088-.835.28.334.773.867.847.967.097.127.24.12.098-.068-.104-.137-.478-.657-.722-1.002.18.074.333.088.522.088.082 0 .17-.008.255-.027.12.13.33.35.41.446zm1.984-7.424l.19.123c-.09.028-.386.126-.474.144-.155.028-.113.082-.04.146.06.05.15.086.244.17-.078.018-.395.068-.683.145-.217-.145-.452-.234-.68-.268.52-.217 1.013-.46 1.123-.502.152-.055.185-.193-.035-.11-.164.06-.69.228-1.21.404.242-.217.36-.484.364-.807.193-.064.507-.164.618-.207-.027.064-.072.195-.116.28-.075.15-.065.233.172.095.095-.056.496-.24.496-.24l-.01.203c.09.02.42-.01.682-.013-.135.07-.497.293-.643.436z"/><path fill="#fff" d="M46.144 58.596c.132.3 1.21 1.41 1.21 2.15 0 1.21-1.035 1.574-2.886 1.574-2.368 0-3.285-.963-3.285-1.63 0-.608.646-1.48 1.225-2.12.25-.28-.127-.53-.29-.21-.182.355-1.032 1.884-1.89 1.884-1.726 0-2.41-2.494-2.41-4.404 0-1.045.348-1.71 1.112-1.71.368 0 1.195.49 2.426.872.352.107.585-.3.08-.36-1.146-.13-2.516-.694-2.516-1.468 0-1.8 3.26-3.395 4.296-3.395 1.01 0 1.11 1.52.984 3.34-.02.335.378.327.37-.017-.046-.45-.085-1.632-.143-2.14-.05-.454.237-.98 1.04-.98 1.887 0 4.103 2.022 4.103 3.12 0 .697-1.154 1.352-2.57 1.617-.38.072-.135.49.176.33.453-.232 1.488-.658 2.167-.658.64 0 1.376.547 1.376 1.648 0 2.515-1.384 4.387-2.31 4.387-.835 0-1.496-1.11-1.983-2.004-.13-.235-.413-.12-.283.173"/><path fill="#312C74" d="M44.928 52.972c-.008-.16-.12-1.192-.12-1.448 0-.775.217-1.136.76-1.136.55 0 1.12.91 1.66.91.132 0 .263-.07.335-.16.054-.067.172-.013.146.083-.03.1-.04.235-.04.366 0 .78 1.428.705 1.428 1.406 0 .943-1.544 1.318-2.06 1.313-.292-.002-.168-.1-.048-.1.89-.005 1.932-.647 1.932-1.157 0-.672-1.734-.562-1.368-1.73-.793.584-1.304-.71-1.964-.71-.367 0-.593.228-.593.897 0 .238.036 1.23.052 1.465.012.234-.11.16-.122.002M41.673 54.27c-.278-.145-1.14-.28-1.383-.36-.856-.276-.927-.74-.825-1.062.148-.483 1.233-.786 1.394-1.306.044-.146.01-.28-.054-.37-.055-.077.035-.177.107-.128.06.04.252.13.354.164.698.217 1.174-1.136 1.838-.916 1.02.338.492 2.138.51 2.592.006.178-.122.232-.138.04-.033-.442.45-2.15-.456-2.433-.637-.2-.98 1.48-2.042.75.23.915-1.1 1.06-1.28 1.647-.112.357.154.703.684.878.224.073 1.173.29 1.345.42.085.065.134.182-.054.085M41.835 57.804c-.113.188-.537 1.042-.69 1.25-.448.618-1.09.696-1.48.41-.385-.278-.413-1.458-.773-1.72-.115-.084-.258-.098-.376-.07-.09.02-.166-.082-.08-.14.07-.046.213-.194.265-.282.376-.627-.77-1.426-.284-2.076.523-.697 2.066-.012 2.65.413.15.11.16.25-.007.14-.867-.558-2.074-.94-2.458-.413-.394.547 1.018 1.494.038 2.22.943-.003.676 1.372 1.17 1.73.276.204.82.137 1.162-.255.158-.176.688-1.125.78-1.29.094-.168.198-.105.083.082M45.628 58.89c.104.155.67.834.848 1.022.503.525.48 1.082.158 1.385-.404.38-1.488-.078-1.948.283-.093.074-.15.252-.165.324-.02.15-.153.127-.174.045-.022-.083-.14-.276-.188-.34-.428-.593-1.622.09-2.078-.444-.552-.646.285-1.82.73-2.21.13-.114.268-.065.132.05-.78.654-1.004 1.62-.75 1.97.394.544 1.892-.413 2.22.78.363-.986 1.525-.27 2.02-.633.277-.2.26-.637-.05-1.06-.138-.192-.775-.965-.86-1.095-.082-.134 0-.228.106-.077M47.447 55.443c.433-.045.986-.146 1.286-.295.68-.343 1.167-.113 1.305.393.125.462-.393 1.42-.248 1.923.032.115.186.246.258.268.074.02.07.17-.014.175-.098.006-.26.03-.38.072-.692.234-.358 1.506-1.024 1.72-.935.307-1.754-1.114-1.867-1.548-.067-.265.04-.23.09-.113.37.933 1.166 1.617 1.686 1.448.637-.21.112-1.69 1.332-1.703-.727-.605.15-1.61-.04-2.19-.123-.386-.473-.517-1.036-.288-.495.203-1.062.258-1.354.253-.2-.004-.282-.086.005-.114M49.006 57.42c-.107-.082-1.912-.596-2.363-.69.416.07 1.78-.19 2.133-.38.1-.053.096-.2-.052-.158-.245.07-1.36.39-2.094.436.065-.22.107-.45.107-.697 0-.585-.268-1.147-.696-1.608-.053-.06-.11-.11-.178-.164.622-.473 1.588-.783 1.82-.814.194-.025.233-.2.04-.195-.236.005-1.436.368-1.938.95 0-.002-.004-.004-.007-.006.31-.447 1.16-1.736 1.316-1.887.18-.178.006-.264-.107-.182-.105.072-1.07 1.504-1.35 1.98-.002 0-.006-.002-.007-.004.18-.445.335-1.712.27-2.09-.02-.112-.163-.15-.168.003-.01.234-.077 1.314-.22 2.027-.372-.182-.838-.287-1.34-.287-.453 0-.81.13-1.114.335-.352-.733-.324-1.954-.277-2.21.036-.193-.116-.285-.172-.1-.073.238-.094 1.623.37 2.242-.218-.3-1.353-1.72-1.458-1.936-.11-.227-.248-.088-.207.045.04.128 1.198 1.607 1.51 1.952-.3-.304-1.555-.896-1.952-.95-.11-.018-.194.105-.048.16.253.09 1.478.567 2.035.944-.154.125-.296.27-.433.424-.365.41-.53.954-.53 1.62 0 .155.017.306.046.452-.818.02-1.946-.535-2.155-.69-.157-.118-.284-.028-.142.106.18.17 1.406.807 2.168.666-.364.064-2.12.426-2.38.445-.25.017-.19.183-.052.206.134.02 1.972-.357 2.416-.484-.4.133-1.49.996-1.72 1.326-.063.094.01.222.122.115.2-.19 1.23-1.14 1.808-1.452.167.498.527.926 1.105 1.195.29.13.665.264 1.06.297-.17.865-.86 1.82-1.045 1.996-.142.137-.074.3.082.182.197-.152 1.027-1.256 1.015-2.035.003.373.087 2.193.045 2.43-.042.246.15.215.195.084.042-.13-.026-2.01-.08-2.468.067.418.735 1.64 1.024 1.918.082.076.22.027.132-.102-.277-.408-.89-1.29-1.087-1.998.625-.03 1.484-.365 1.834-.97.08-.14.165-.296.236-.468.686.416 1.337 1.334 1.444 1.555.086.178.263.164.2-.02-.084-.235-.876-1.37-1.618-1.596.353.113 2.106.598 2.318.707.225.118.254-.075.142-.157"/><path fill="#FFEC00" d="M44.25 55.607c.234 0 .4.198.4.332 0 .202-.188.365-.355.365-.168 0-.356-.163-.356-.354 0-.186.16-.343.31-.343M43.336 55.38c.208 0 .302.24.302.362 0 .182-.183.354-.332.354-.154 0-.264-.168-.264-.344 0-.166.157-.37.294-.37M43.554 56.34c.21 0 .316.176.316.298 0 .183-.127.333-.276.333-.153 0-.393-.108-.393-.282 0-.168.22-.348.354-.348M44.56 56.7c.21 0 .317.177.317.296 0 .182-.127.332-.277.332-.153 0-.32-.147-.32-.32-.002-.166.145-.31.28-.31M45.2 56.072c.21 0 .317.176.317.3 0 .18-.125.33-.278.33-.15 0-.318-.147-.318-.32 0-.167.144-.31.28-.31M45.002 54.996c.21 0 .357.226.357.348 0 .18-.126.332-.276.332-.152 0-.32-.148-.32-.32 0-.17.102-.36.238-.36M46.016 54.996c.202 0 .305.176.305.293 0 .175-.12.32-.267.32-.147 0-.31-.142-.31-.31 0-.163.14-.304.273-.304M45.26 54.123c.204 0 .308.17.308.29 0 .176-.125.32-.267.32-.148 0-.31-.142-.31-.31 0-.163.14-.3.27-.3M46.086 56.17c.203 0 .306.17.306.287 0 .178-.157.375-.303.375-.148 0-.278-.194-.278-.36 0-.166.142-.303.274-.303M45.416 57.143c.205 0 .422.146.422.264 0 .176-.227.414-.374.414-.144 0-.35-.08-.35-.24 0-.162.17-.437.302-.437M44.05 57.457c.205 0 .445.244.445.362 0 .176-.182.293-.327.293-.148 0-.312-.145-.312-.312 0-.162.06-.343.193-.343M43.02 57.158c.205 0 .387.17.387.287 0 .176-.204.324-.348.324-.15 0-.313-.144-.313-.312 0-.163.14-.3.274-.3M42.445 56.172c.203 0 .306.17.306.29 0 .175-.122.323-.267.323-.147 0-.31-.147-.31-.313 0-.163.14-.3.272-.3M42.56 54.954c.203 0 .304.173.304.292 0 .176-.18.37-.326.37s-.25-.192-.25-.358c0-.164.14-.304.27-.304M44.277 53.865c.204 0 .304.172.304.29 0 .177-.12.32-.268.32-.145 0-.31-.142-.31-.31 0-.162.142-.3.275-.3M43.18 54.162c.202 0 .304.172.304.29 0 .177-.123.323-.268.323-.146 0-.312-.145-.312-.312 0-.162.14-.3.275-.3M44.032 54.713c.21 0 .314.176.314.297 0 .184-.125.334-.274.334-.153 0-.32-.148-.32-.32 0-.17.145-.31.28-.31"/><path fill="#312C74" d="M44.27 13.988c1.204 0 1.7.787 1.2 1.995.227 0 .328-.23.49-.714.847.328.98 1.313.276 1.908.436-.2.797-.173 1.05.022-.346.21-.454.393-.43.58.264-.183.493-.393 1.016-.393.54 0 1.09.358 1.09 1.22 0 1.327-.822 1.448-1.878 1.208 0 .055.19.295.375.393-.852.253-1.89.018-2.607-.403.405 1.32 2.417 1.856 3.93.614.607 1.597 3.078 1.825 4.18.48-1.035.475-2.17.206-2.7-.303.196-.06.553-.205.704-.4-.836.007-1.214-.316-1.214-.963 0-.636.665-1.343 1.44-1.343.562 0 .83.386 1.03.855.105-.193.11-.63.065-.98.984-.045 1.172.567 1.345.94.295-1.28 1.15-2.202 3.027-1.862-.316.316-.55.654-.73 1.05.234-.2.54-.463 1.183-.463.833 0 1.274.577 1.27 1.14-.007.604-.38 1.015-.66 1.217-.4-.688-.924-.783-1.298-.783-1.08 0-1.548.473-1.673.84.333.628-.07 1.135-.768 1.062-.12.228-.87 1.574-1.124 1.874.164.498.124 1.104-.25 1.65-.015.11-.086.646-.095.755.1.05.236.197.236.377 0 1.07-3.798 1.46-8.53 1.46-2.45 0-8.55-.274-8.55-1.402 0-.197.107-.317.26-.416-.022-.078-.063-.688-.083-.755-.335-.55-.348-1.127-.142-1.58-.25-.298-1.068-1.73-1.19-1.957-.892.008-1.002-.593-.71-1.09-.386-.452-.897-.857-1.665-.857-.54 0-.933.11-1.3.664-.255-.193-.58-.48-.585-1.084-.007-.68.593-1.094 1.157-1.094.573 0 .936.228 1.25.57-.12-.36-.457-.91-.716-1.202 1.836-.317 2.665.658 2.962 1.94.17-.376.46-1.07 1.442-1.026-.064.354-.082.665.006.917.238-.354.46-.78.98-.78.706 0 1.482.852 1.482 1.465 0 .636-.44.913-1.373.855.15.197.393.34.695.41-.51.535-1.563.694-2.64.274 1.263 1.475 3.633 1.063 4.195-.444 1.333 1.25 3.6.718 4.04-.65-.795.526-1.805.617-2.656.45.16-.116.3-.298.342-.408-1.15.31-1.81-.037-1.81-1.188 0-.674.48-1.206 1.04-1.206.352 0 .73.134 1.046.374.022-.188-.06-.358-.408-.57.254-.196.577-.255 1.014-.056-.63-.537-.588-1.593.328-1.91.114.445.235.732.453.764-.495-1.28-.018-2.042 1.185-2.042"/><path fill="#FFEC00" d="M32.696 18.458c-.363-.62-.83-.726-1.194-.723-.533.005-.936.415-.936.895 0 .256.094.465.205.56.227-.302.66-.853 1.926-.732M57.79 19.207c.134-.113.21-.39.21-.617 0-.5-.403-.865-.97-.87-.572-.004-.874.193-1.22.68 1.312-.093 1.69.383 1.98.807M44.21 26.755c3.563.028 8.015-.354 8.015-1.118 0-.493-3.667-1.292-7.983-1.292-4.378 0-7.936.794-7.936 1.296 0 .454 3.762 1.083 7.904 1.115M44.21 26.755c3.563.028 8.015-.354 8.015-1.118 0-.493-3.667-1.292-7.983-1.292-4.378 0-7.936.794-7.936 1.296 0 .454 3.762 1.083 7.904 1.115M34.63 20.648c.155.25 1.19 1.913 1.326 2.092.445.085 1.18.19 1.418.243.282.06.396.52.142.665-.242.14-1.163.846-1.316.955.007.12.04.354.05.46 2.074-.76 4.794-1.034 8.014-1.034 3.9 0 6.196.443 7.955 1.06.02-.188.05-.317.07-.57-.604-.343-1.154-.74-1.366-.916-.22-.182-.077-.588.123-.646.427-.12 1.062-.24 1.59-.347.05-.048 1.05-1.644 1.262-2.016.056-.18.307-.58.528-.695.403-.898 1.303-1.254 2.626-1.047-.456-.322-1.158-.247-1.418-.18-.057.015-.178 0-.17-.12.16-.618.273-.985.61-1.468-1.694-.09-2.255 1.266-2.304 2.104-.005.093-.205.173-.23.063-.114-.525-.378-1.172-1.007-1.275.005.395.017.698-.132.955-.09.154-.286.11-.317.046-.226-.48-.487-.786-.797-.786-.502 0-.75.29-.582.562.064.106-.045.164-.158.13-.252-.075-.467.035-.467.432 0 .48.43.72 1.093.647.16-.018.218.092.144.207-.07.108-.327.328-.503.434.15.117.554.264 1.2.264.558 0 1.108-.203 1.32-.39.095-.086.264-.02.18.206-.437 1.204-3.32 2.458-4.88.203-1.32.965-3.427.822-4.116-1.04-.078-.213.125-.432.36-.28.173.11.73.378 1.28.452.21.027.562.07.796.016-.095-.126-.212-.348-.234-.412-.044-.125.078-.19.22-.102.15.092.27.192.638.192.622 0 .962-.485.962-.68 0-.262-.147-.32-.336-.35-.088-.014-.104-.128-.043-.157.195-.092.248-.2.248-.384 0-.227-.222-.46-.648-.46-.347 0-.668.175-.893.292-.065.034-.165.018-.214-.066-.058-.133-.06-.357.15-.657-.275-.06-1.118.248-1.834.934-.115.108-.287-.138-.19-.198.958-.586 1.584-1.194 1.584-1.705 0-.297-.136-.5-.3-.615-.172.384-.484.606-.682.606-.088 0-.206-.063-.182-.137.038-.12.173-.593.173-.908 0-.48-.312-.863-.61-.863-.22 0-.36.118-.407.255-.03.087-.16.08-.2 0-.095-.188-.215-.26-.402-.26-.324 0-.598.397-.598.862 0 .42.174.846.174.922.003.076-.132.124-.22.124-.33 0-.558-.29-.635-.602-.177.078-.276.39-.276.63 0 .57.514 1.01 1.56 1.706.096.062-.035.288-.158.188-.783-.65-1.55-.966-1.824-.91.203.393.164.536.108.67-.035.06-.17.09-.23.06-.224-.117-.518-.287-.782-.287-.442 0-.695.265-.695.583 0 .056.06.215.24.28.053.02.023.12-.04.128-.19.03-.282.187-.282.33 0 .33.31.622.768.62.368-.004.652-.072.797-.19.13-.104.23-.006.177.117-.028.064-.175.367-.227.47.66.06 1.464-.092 2.07-.474.227-.142.374.104.347.25-.256 1.333-2.442 2.336-4.142 1.108-1.723 2.065-4.055 1.193-4.852-.237-.086-.152-.06-.395.16-.207.275.242.76.357 1.367.357.52 0 .85-.03 1.134-.22-.25-.112-.487-.352-.558-.46-.075-.113-.01-.26.15-.234.898.133 1.122-.24 1.12-.528-.004-.394-.197-.606-.49-.526-.163.044-.235-.056-.184-.126.185-.266-.045-.57-.472-.57-.307 0-.53.264-.778.648-.062.1-.264.063-.32-.034-.11-.192-.167-.502-.086-.854-.573.094-.955.688-1.087 1.295-.022.104-.257.035-.262-.067-.04-.695-.628-2.174-2.22-2.106.332.45.465.81.61 1.458.01.122-.155.145-.212.137-.36-.053-.764-.084-1.26.158.814-.134 1.83.106 2.46 1.04.187.086.514.458.52.773"/><path fill="#312C74" d="M43.987 21.44c-.18.167-.623.495-.858.657-.088.06-.137.153-.14.265-.007.122.045.233.13.303.196.152.596.476.843.69.158.134.43.11.556-.003.126-.113.702-.512.86-.608.092-.056.142-.153.148-.272.003-.13-.05-.243-.145-.308-.155-.11-.656-.522-.798-.687-.066-.075-.166-.12-.285-.126-.058-.006-.21-.003-.313.09M39.032 23.315c-.03-.15-.084-.504-.096-.624.127-.07.223-.2.27-.36.376-.04 1.194-.162 1.523-.214.09.124.255.217.428.24.054.177.098.558.105.694-.142.097-.246.25-.302.366-.844.09-1.42.165-1.572.19-.066-.153-.17-.24-.356-.29M34.27 19.486c-.04-.55-.46-1.494-.805-1.727-.072-.05-.18-.05-.106.024.322.338.627 1.218.723 1.61.02.082.196.193.188.092M43.85 18.792c0-.278.195-.52.452-.52.282 0 .422.23.422.508 0 .45-.2.547-.45.547-.29 0-.423-.266-.423-.535M41.137 18.58c.232-.037 2.013.007 2.185.027.17.02.152.206.046.197-.248-.015-2-.132-2.178-.12-.164.013-.17-.088-.053-.104M44.447 17.773c-.007.084-.27.102-.263-.02.015-.225.062-2.16.06-2.263-.003-.202.13-.207.142-.01.013.207.07 2.17.06 2.293M45.26 18.584c.115-.024 1.966.045 2.175.043.115 0 .132.112.012.12-.244.012-1.914.004-2.14.047-.172.034-.21-.173-.046-.21M37.055 19.375c-.083.06-1.954.664-2.07.73-.083.05-.152-.127-.115-.153.065-.046 2.076-.636 2.14-.666.065-.033.12.033.045.09M54.27 19.486c.043-.55.513-1.42.728-1.69.055-.065.167-.058.107.028-.288.414-.55 1.18-.647 1.57-.02.082-.197.193-.19.092M51.487 19.375c.08.06 1.832.637 1.943.704.088.047.154-.127.115-.156-.062-.044-1.95-.608-2.017-.64-.062-.03-.117.035-.04.09M49.425 23.3c.03-.15.086-.503.096-.623-.124-.074-.222-.204-.27-.362-.374-.043-1.193-.163-1.522-.215-.09.124-.256.215-.428.243-.056.173-.097.556-.106.693.142.097.247.25.302.365.845.093 1.423.167 1.575.193.065-.156.166-.242.355-.293M44.242 24.667c4.71.035 7.143.61 7.138.966-.002.233-.482.345-.546.354-.095.02-.155-.133-.062-.168.124-.048.214-.1.214-.165 0-.26-2.253-.71-6.746-.745-3.797-.03-6.6.494-6.602.792 0 .06.045.06.156.09.068.02.064.148-.01.148-.23-.002-.557-.097-.555-.237.003-.567 3.798-1.06 7.012-1.036"/><path fill="#FFEC00" d="M44.146 21.6c.025-.02.143-.03.18.013.166.19.693.623.85.733.042.03.037.137.01.154-.164.098-.752.505-.9.638-.02.018-.126.036-.167 0-.245-.212-.652-.54-.855-.7-.04-.03-.046-.13-.007-.16.242-.165.693-.5.888-.677M36.066 24.255c.028.022.084.024.16-.027.326-.24.842-.66 1.124-.825.037-.016.01-.166-.055-.17-.09-.005-.864-.156-1.243-.217-.07-.005-.12.008-.13.06-.16.324-.13.832.144 1.18M52.558 22.96c-.018-.035-.075-.043-.168-.032-.44.05-1.15.243-1.243.263-.062.018-.085.18-.032.202.307.18.856.608 1.15.757.043.02.07.01.098-.01.28-.15.346-.926.195-1.18M39.268 23.185c.085.028.12.06.164.127.313-.05 1.026-.128 1.37-.166.046-.075.087-.115.145-.15-.01-.162-.04-.398-.08-.53-.055-.015-.13-.046-.18-.11-.376.06-1.012.155-1.376.195-.022.058-.047.102-.12.15.01.106.047.34.078.485M49.12 23.183c-.084.03-.12.06-.164.126-.314-.05-1.026-.127-1.373-.165-.042-.075-.086-.116-.14-.15.01-.162.036-.398.08-.53.054-.013.128-.046.177-.11.376.06 1.012.157 1.378.196.02.057.05.1.12.15-.01.104-.046.34-.077.483"/><path fill="#312C74" d="M92.848 19.535c-.258-2.808-.573-3.54-2.42-3.54h-.83v8.422c0 .75.335.876.766.876h1.368v.56h-5.764v-.56h1.37c.43 0 .763-.127.763-.876v-8.422h-.824c-1.847 0-2.166.732-2.42 3.54h-.526v-4.148h9.04v4.148h-.522M98.815 25.85v-.526h.507c.448 0 .78-.128.78-.876V20.41c0-.35-.093-1.258-1.097-1.258-1.384 0-2.292 1.482-2.292 2.998v2.297c0 .75.334.876.78.876h.51v.525h-4.14v-.525h.686c.444 0 .764-.143.764-.876V16.79c0-.75-.337-.877-.78-.877h-.67v-.527h2.85v4.484c.414-.798 1.29-1.468 2.563-1.468 1.323 0 2.118.926 2.23 1.77v4.275c0 .75.315.876.763.876h.685v.525h-4.14"/><path fill="#312C74" d="M106.696 25.994c-2.55 0-3.456-1.88-3.456-3.397 0-2.058 1.178-4.18 3.326-4.18 1.88 0 2.897 1.708 2.932 3.733l-.207.255h-4.617c0 1.93.763 3 2.23 3 1.56 0 2.13-1.278 2.117-2.266h.57c.05 1.356-.763 2.854-2.894 2.854m-.08-6.953c-1.035 0-1.75 1.07-1.91 2.744h3.34c.13-1.117-.3-2.743-1.43-2.743zM93.4 30.974c-.432 0-.75.13-.75.88v5.566c0 1.418-.685 3.684-3.692 3.684-2.497 0-3.612-1.562-3.772-2.806v-6.444c0-.75-.32-.88-.75-.88h-1.032v-.555h5.33v.555h-1.288c-.43 0-.763.13-.763.88v5.9c0 1.98 1.368 2.646 2.482 2.646 1.465 0 2.677-.905 2.677-2.98v-5.566c0-.75-.32-.88-.75-.88h-1.226v-.555h4.568v.555H93.4M98.78 40.88v-.527h.508c.446 0 .78-.127.78-.892v-3.97c0-.35-.094-1.26-1.1-1.26-1.384 0-2.115 1.483-2.115 3.015v2.217c0 .765.334.892.78.892h.51v.528h-4.14v-.528h.686c.445 0 .762-.127.762-.892V34.98c0-.75-.333-.876-.78-.876h-.684v-.527h2.754l.095 1.42c.414-.814 1.113-1.516 2.403-1.516 1.32 0 2.117.925 2.23 1.77v4.213c0 .75.316.892.762.892h.573v.528H98.78"/><path fill="#312C74" d="M103.267 40.88v-.527h.56c.444 0 .78-.127.78-.876v-4.5c0-.747-.335-.874-.78-.874h-.685v-.527h2.865v5.9c0 .75.333.877.78.877h.684v.528h-4.203m1.878-8.627c-.476 0-.875-.432-.875-.974 0-.544.4-.975.875-.975.48 0 .877.43.877.974 0 .54-.397.973-.877.973zM114.84 34.103c-.51 0-.893.333-1.114.91l-2.356 5.87h-.62l-2.182-5.87c-.27-.735-.668-.91-1.16-.91h-.51v-.527h4.298v.527h-.62c-.448 0-.828.208-.56.924l1.5 4.083 1.445-3.843c.226-.575.226-1.164-.476-1.164h-.51v-.527h3.104v.527h-.238"/><path fill="#312C74" d="M118.55 41.103c-2.548 0-3.456-1.96-3.456-3.477 0-2.057 1.176-4.243 3.325-4.243 1.88 0 2.897 1.708 2.93 3.732l-.205.255h-4.618c0 1.93.766 3.142 2.23 3.142 1.56 0 2.13-1.277 2.117-2.263h.572c.047 1.355-.764 2.853-2.896 2.853m-.08-7.098c-1.034 0-1.75 1.07-1.908 2.744h3.34c.127-1.117-.304-2.745-1.433-2.745zM127.192 35.952c-.51 0-.782-.43-.782-.798 0-.59.335-.973.8-1.148-1.196-.254-2.327 1.197-2.327 3.19v2.266c0 .75.336.892.78.892h.844v.528h-4.472v-.528h.684c.444 0 .778-.158.778-.892V34.98c0-.75-.334-.876-.78-.876h-.683v-.527h2.738l.078 1.323c.368-.83 1.132-1.515 2.1-1.515.703 0 1.198.573 1.198 1.355 0 .67-.367 1.212-.956 1.212M131.98 41.103c-.825 0-1.67-.445-2.02-.956l-.397.845h-.476v-3.157h.476c.144 1.15.957 2.63 2.356 2.63.637 0 1.305-.35 1.305-1.065 0-1.708-4.17-1.276-4.17-3.75 0-1.26.89-2.265 2.34-2.265.684 0 1.383.287 1.83.78l.46-.668h.37v2.792h-.48c-.317-1.534-1.1-2.266-2.118-2.266-.843 0-1.24.557-1.24 1.102 0 1.818 4.25 1.258 4.25 3.715 0 1.34-1.034 2.263-2.486 2.263"/><path fill="#312C74" d="M135.356 40.88v-.527h.557c.446 0 .78-.127.78-.876v-4.5c0-.747-.334-.874-.78-.874h-.683v-.527h2.865v5.9c0 .75.334.877.78.877h.683v.528h-4.202m1.878-8.627c-.478 0-.875-.432-.875-.974 0-.544.396-.975.874-.975s.877.43.877.974c0 .54-.398.973-.876.973zM142.887 41.007c-.686 0-1.673-.462-1.832-1.45v-5.31h-1.098v-.575c1.02-.21 1.735-.8 1.83-3.254h.654v3.158h2.164v.67h-2.163V39c0 .7.303 1.082.875 1.082.638 0 .987-.493.987-1.132v-2.2h.637v2.457c0 .86-.7 1.8-2.053 1.8M152.898 34.103c-.51 0-.876.318-1.115.892l-2.736 6.636c-.78 1.898-1.34 2.967-2.643 2.967-.685 0-1.242-.558-1.242-1.308 0-.575.302-1.183.938-1.183.353 0 .7.385.7.863 0 .367-.156.734-.476.973.876.286 1.88-1.212 2.37-3.302l-1.973-5.645c-.254-.733-.684-.892-1.177-.892h-.35v-.527h4.12v.527h-.603c-.443 0-.81.192-.557.91l1.386 3.97 1.48-3.716c.22-.575.22-1.164-.48-1.164h-.586v-.527h3.182v.527h-.238"/><path fill="#312C74" d="M88.936 56.166c-2.913 0-4.522-2.807-4.522-5.294 0-3.032 1.912-5.614 4.538-5.614 3.358 0 4.616 3.46 4.616 5.423 0 3.476-2.087 5.486-4.632 5.486m.11-10.207c-2.244 0-3.024 2.374-3.024 4.895 0 3.765 1.75 4.61 3.07 4.61 1.75 0 2.866-1.884 2.866-4.5 0-2.008-.555-5.006-2.912-5.006zM98.63 47.584c-.32 0-.687-.223-.687-.684 0-.367.24-.672.686-.863-.097-.127-.32-.19-.446-.19-.748 0-1.178.575-1.178 1.468 0 .62.142 1.404.286 1.945h1.782v.67h-1.717v4.61c0 .75.333.876.778.876h.846v.527h-4.49v-.527h.686c.444 0 .78-.127.78-.877v-4.61H94.57v-.67h1.336c-.11-.463-.207-1.18-.207-1.482 0-1.355.89-2.52 2.37-2.52.972 0 1.497.748 1.497 1.227 0 .798-.588 1.1-.938 1.1M89.448 71.254c-1.386 0-2.53-.717-2.96-1.436l-.654 1.21h-.43v-4.64h.525c.253 2.105 1.24 4.227 3.405 4.227 1.194 0 2.054-.67 2.054-1.818 0-3.477-6.144-1.29-6.144-5.566 0-1.29 1.017-2.888 3.07-2.888 1.37 0 2.134.48 2.74 1.15l.476-1.15h.413v4.42h-.54c-.207-2.186-1.098-3.78-2.913-3.78-1.734 0-2.15 1.26-2.15 1.835 0 3.22 6.257 1.31 6.257 5.262 0 2.12-1.608 3.174-3.152 3.174M98.01 71.03v-.526h.512c.444 0 .78-.127.78-.877v-3.973c0-.352-.096-1.26-1.1-1.26-1.385 0-2.116 1.482-2.116 2.998v2.234c0 .75.335.877.78.877h.51v.525h-4.14v-.525h.685c.446 0 .764-.145.764-.877v-8.184c0-.748-.332-.877-.78-.877h-.667v-.525h2.85v5.072c.413-.8 1.115-1.47 2.39-1.47 1.32 0 2.115.927 2.227 1.77v4.214c0 .75.32.877.764.877h.684v.525h-4.14"/><path fill="#312C74" d="M105.97 71.252c-2.547 0-3.454-1.96-3.454-3.477 0-2.057 1.18-4.242 3.325-4.242 1.88 0 2.9 1.707 2.933 3.73l-.21.258h-4.614c0 1.93.762 3.142 2.227 3.142 1.562 0 2.133-1.275 2.116-2.264h.575c.05 1.356-.766 2.854-2.897 2.854m-.08-7.096c-1.034 0-1.75 1.066-1.91 2.742h3.344c.126-1.117-.304-2.742-1.434-2.742zM113.896 62.097c-.32 0-.683-.224-.683-.685 0-.367.237-.672.683-.863-.093-.144-.43-.288-.794-.288-.908 0-1.368.768-1.368 1.518 0 .62.173 1.402.284 1.944h1.608v.67h-1.56v5.233c0 .748.334.877.78.877h.685v.525h-4.17v-.526h.525c.447 0 .78-.13.78-.877v-5.232h-1.226v-.67h1.194c-.112-.463-.208-1.182-.208-1.484 0-1.354 1.082-2.565 2.562-2.565 1.02 0 1.846.686 1.846 1.324 0 .746-.49 1.097-.938 1.097"/><path fill="#312C74" d="M120.39 62.543c-.508 0-.875-.396-.875-.89 0-.353.207-.75.542-.944-.303-.368-.765-.495-1.24-.495-1.672 0-2.438 1.39-2.023 3.51h1.56v.67h-1.495v5.232c0 .75.333.877.78.877h.762v.525h-4.25v-.526h.526c.446 0 .778-.127.778-.877v-5.232h-1.222v-.67h1.19c-.383-1.93.62-4.1 3.392-4.1 1.368 0 2.578.862 2.578 1.71 0 .778-.415 1.208-1.003 1.208m-1.462 8.486v-.526h.62c.446 0 .78-.127.78-.877v-4.482c0-.75-.334-.88-.78-.88h-.687v-.54h2.867v5.902c0 .75.335.877.78.877h.527v.525h-4.106zM126.967 71.252c-2.552 0-3.455-1.96-3.455-3.477 0-2.057 1.177-4.242 3.326-4.242 1.878 0 2.897 1.707 2.93 3.73l-.21.258h-4.612c0 1.93.76 3.142 2.228 3.142 1.558 0 2.13-1.275 2.114-2.264h.574c.047 1.356-.764 2.854-2.895 2.854m-.08-7.096c-1.037 0-1.753 1.066-1.91 2.742h3.342c.125-1.117-.304-2.742-1.433-2.742zM130.26 71.03v-.526h.684c.444 0 .78-.127.78-.877v-8.184c0-.748-.336-.877-.78-.877h-.684v-.525h2.866v9.587c0 .732.333.877.78.877h.684v.525h-4.33"/><path fill="#312C74" d="M141.642 71.03c-.526 0-.924-.526-.938-1.07-.367.624-1.053 1.214-2.086 1.214-1.926 0-3.2-1.69-3.2-3.732 0-1.47 1.1-3.893 3.406-3.893.667 0 1.306.335 1.737.94v-3.047c0-.748-.337-.877-.78-.877h-1.53v-.525h3.708v9.554c0 .766.32.91.766.91h.684v.525h-1.766m-2.82-6.827c-1.098 0-1.924 1.39-1.924 3.062 0 2.233.826 3.224 1.845 3.224 1.274 0 1.926-1.102 1.926-2.968 0-1.516-.46-3.32-1.847-3.32zM145.365 71.19c-.56 0-1.002-.466-1.002-1.024 0-.557.443-1.02 1.002-1.02.555 0 1.002.463 1.002 1.02 0 .56-.447 1.023-1.002 1.023M55.66 46.47c-.083-2.51-.972-12.922-1.02-16.674-.003-.27-.046-.278-.252-.253-.12.014-.34.038-.653.07 0 0 .017-.33 0-.434-.015-.105-.015-.12-.147-.105-.11.01-.328.023-.588.043 0-.29.002-.574.01-.848-.53.168-1.54.234-2.003.234-1.864 0-2.913-.582-4.37-.582-.647 0-1.335.077-2.03.338-.207.076-.335.024-.477-.04-.14-.065-.723-.298-1.612-.298-1.44 0-3.42.64-5.102.64-.924 0-1.683-.235-2.072-.453-.007.2-.018.434-.03.695-.215-.018-.47-.043-.55-.043-.13 0-.132 0-.132.15 0 .13-.012.248-.02.43-.114 0-.55-.03-.66-.048-.14-.024-.167-.008-.167.242 0 .185-1.237 16.89-1.237 17.245 0 .47.04.612.55.448.967-.31 5.656-1.758 9.368-1.326-.32 1.215 3.953 1.23 3.783.03 3.382-.474 8.603 1.09 8.975 1.147.367.06.45-.12.436-.61"/><path fill="#FFEC00" d="M43.763 45.465c-.49-.207-1.248-.416-3.21-.416-3.19 0-5.417 1.013-7.032.784-.1-.014-.15-.03-.145-.146.256-5.01.883-12.135 1.22-16.04-.11 0-.373-.03-.43-.03-.06 0-.1 0-.1.07S32.853 46.4 32.843 46.58c-.01.176.037.254.173.224.138-.028 3.94-1.27 7.487-1.27.707 0 2.13.106 2.22.116.09.01.05.06.04.13-.134.924 3.377.774 3.18.087-.018-.07-.04-.166.08-.188.117-.02.932-.147 1.916-.147 2.776 0 6.92.967 7.078 1.008.157.04.175-.1.175-.226 0-.13-.904-16.234-.904-16.332 0-.1.036-.16-.05-.147-.09.008-.307.01-.395.01-.054 3.02.828 15.708.828 15.81 0 .097-.03.1-.11.116-.228.048-.605.076-1.016.076-1.383 0-3.83-.778-6.07-.778-1.012 0-2.108.283-2.537.45-.45.18-.713.144-1.177-.053"/><path fill="#fff" d="M44.144 28.873c.003-.08-.044-.164-.102-.214-.19-.155-.653-.443-1.382-.443-1.78 0-3.49.764-5.272.764-.67 0-1.152-.114-1.652-.22-.054.896-.917 14.282-1.05 15.818 1.464.273 3.02-.752 6.195-.752 1.888 0 3.135.616 3.337.723.182.095.25.093.46-.02.542-.282 1.858-.677 3.37-.677 2.122 0 4.106 1.024 5.312.716.112-5.12-.843-11.557-.828-15.755-.254.034-1.066.113-1.432.113-1.846 0-2.965-.7-4.59-.7-.96 0-1.59.342-1.8.495-.072.055-.08.074-.08.18-.034 3.25-.033 12.078-.162 15.14-.01.188-.293.142-.293.008.11-3.463-.06-12.24-.03-15.177M53.463 29.483c0-.062-.03-.09-.09-.082-.038.01-.217.01-.372.012.038 4.935.888 11.923.738 15.627-1.385.263-3.355-.677-5.81-.677-2.23 0-3.21.453-3.31.504-.1.052-.244.04-.378-.018-.523-.216-1.742-.5-3.397-.5-3.575 0-4.598.79-6.506.668.264-4.378.786-12.364.964-15.924-.094-.01-.18-.02-.24-.02-.117 0-.11.02-.117.108-.385 4.396-.86 11.193-1.203 16.18-.01.12-.02.12.057.13 1.98.248 3.65-.74 6.727-.74 1.614 0 2.678.188 3.52.533.313.127.515.12.846-.03.753-.345 1.683-.464 2.55-.464 2.92 0 5.26 1.012 6.844.772.082-.012.08-.068.08-.137-.002-.067-.822-13.467-.9-15.942"/><path fill="#E01E26" d="M36.644 38.763c-.183-.005-.28-.118-.392-.125-.11-.008-.29.02-.337.113-.043.143-.14.1-.14-.028 0-.126.09-3.93.083-4.058-.014-.317-.043-.394-.323-.31-.05.015-.092-.127.015-.17.056-.026.75-.26.813-.26.05 0 .057.042.057.107 0 .078 0 .21-.007.387.12-.176.26-.316.45-.47.075-.064.14-.114.236-.057.35.21.83.936.786 2.49-.013.506-.708 2.412-1.242 2.383m.148-4.367c-.142 0-.267.162-.386.38-.02.907-.07 2.384-.146 3.468.335.077.314.226.4.232.06 0 .09-.006.14-.04.358-.276.546-.994.56-1.444.042-1.575-.33-2.596-.568-2.596z"/><path fill="#312C74" d="M38.63 38.54c-.026.14-.217.105-.217-.02 0-.127-.063-2.116-.084-2.244-.036-.23-.17-.268-.337-.296-.06-.007-.086-.12.014-.168.056-.03.758-.296.82-.296.05 0 .057.043.057.107.007.384-.092 2.164-.254 2.918m.015-3.51c-.07.174-.21.09-.217.02-.007-.064-.1-.33-.12-.394-.028-.084-.112-.183-.15-.183-.032 0-.082-.04-.013-.097.037-.03.444-.184.562-.21.043-.015.077.026.064.07-.005.042-.097.71-.125.793zM39.755 38.498c-.36 0-.653-.233-.738-.344-.035-.042-.068-.07-.02-.098.048-.03.238-.353.273-.394.028-.043.048 0 .063.035.09.26.266.562.51.562.157 0 .352-.248.352-.515 0-.36-1.06-.35-1.06-1.286 0-.27.084-.65.647-1.022.077-.056.106-.064.134-.027.014.02.33.28.514.4.06.04.09.034.07.076-.035.08-.13.17-.2.233-.04.034-.132.034-.166.02-.132-.064-.35-.254-.43-.365-.013-.02-.03-.03-.04-.015-.14.12-.162.26-.162.442 0 .486 1.024.535 1.024 1.16 0 .44-.29 1.136-.77 1.136M41.5 38.49c-.56 0-.82-.66-.82-1.356 0-.627.5-1.21.786-1.518.07-.08.12-.1.15-.065.01.022.3.367.46.494.02.02.176-.01.134.077-.035.077-.154.213-.232.275-.062.05-.19.063-.24.022-.138-.114-.216-.22-.31-.373-.013-.022-.033-.03-.04-.014-.156.204-.225.483-.225.746 0 .92.266 1.308.61 1.308.197 0 .29-.175.4-.338.043-.064.077.007.05.064-.2.398-.314.68-.722.68"/><path fill="#312C74" d="M43.088 38.49c-.563 0-.82-.66-.82-1.356 0-.627.386-1.21.673-1.518.07-.08.21-.08.253-.065.14.05.667.494.667.845 0 .133-.772.787-1.088.998.092.494.308.71.57.71.27 0 .44-.132.567-.315.04-.063.083.016.054.063-.223.415-.47.64-.876.64m-.077-2.552c-.04-.037-.07-.015-.083.014-.14.24-.202.554-.202.845 0 .154.006.292.02.42.21-.176.583-.555.583-.81 0-.158-.177-.357-.317-.47z"/><path fill="#E01E26" d="M46.02 38.708c-.18 0-.285-.113-.4-.113-.11 0-.265-.008-.33.063-.02.063-.14.134-.14-.02 0-.126-.02-3.87-.026-3.997-.015-.26-.1-.335-.332-.294-.057.008-.11-.084-.012-.132.055-.03.694-.302.757-.302.114 0 .132.054.132.12v.302c.113-.168.247-.31.436-.47.078-.072.142-.106.24-.05.52.29.884.985.884 2.61 0 .69-.675 2.284-1.21 2.284m-.012-4.396c-.134 0-.237.155-.33.344 0 .866-.013 2.37-.063 3.497.337.055.337.254.42.254.063 0 .087-.008.135-.05.38-.317.513-1.063.513-1.625 0-1.836-.402-2.42-.675-2.42z"/><path fill="#312C74" d="M48.21 38.49c-.446 0-.79-.703-.79-1.42 0-.752.564-1.533.988-1.533.493 0 .815.766.815 1.414 0 .62-.562 1.54-1.012 1.54m-.06-2.588c-.197 0-.318.33-.318.604 0 .96.408 1.57.597 1.57.26 0 .37-.29.37-.593 0-.836-.384-1.58-.65-1.58zM50.275 38.49c-.52 0-.82-.738-.82-1.356 0-.627.385-1.226.75-1.526.14-.113.154-.12.24-.028.012.02.24.338.4.465.02.02.145.035.104.12-.036.077-.134.183-.21.245-.064.05-.185.058-.24.02-.147-.082-.24-.307-.337-.448-.014-.02-.027-.02-.042-.014-.16.12-.23.36-.23.647 0 .922.314 1.463.66 1.463.196 0 .323-.14.428-.295.05-.07.1.028.063.083-.196.307-.355.624-.765.624"/><path fill="#312C74" d="M51.982 38.49c-.52 0-.9-.617-.9-1.25 0-.683.372-1.31.8-1.668.078-.062.176-.035.217-.02.268.09.682.66.682 1.032 0 .135-.842.59-1.185.747.11.485.386.733.644.733.253 0 .442-.135.562-.318.042-.064.09.05.056.1-.252.363-.47.645-.876.645m-.078-2.518c-.042-.033-.07-.02-.092 0-.196.176-.273.535-.273.825 0 .14.013.266.027.377.252-.12.624-.365.624-.583 0-.265-.096-.46-.286-.618z"/></svg>